<?xml version="1.0" encoding="utf-8"?>
<!-- Generator: Adobe Illustrator 23.0.2, SVG Export Plug-In . SVG Version: 6.00 Build 0)  -->
<svg version="1.1" id="Capa_1" xmlns="http://www.w3.org/2000/svg" xmlns:xlink="http://www.w3.org/1999/xlink" x="0px" y="0px"
	 viewBox="0 0 1354 481" style="enable-background:new 0 0 1354 481;" xml:space="preserve">
<style type="text/css">
	.st0{fill:#FFFFFF;}
	.st1{fill:none;stroke:#FFFFFF;stroke-width:5;stroke-miterlimit:10;}
	.st2{fill:none;stroke:#FFFFFF;stroke-width:7.0368;stroke-miterlimit:10;}
</style>
<g id="Logo">
</g>
<g id="Capa_4">
</g>
<g id="Capa_5">
</g>
<g id="Capa_6">
</g>
<g id="Capa_3">
</g>
<g id="LOGO_P1">
</g>
<g id="TODO_P1">
</g>
<g id="COLORES_P1">
</g>
<g id="VERSION_DE_COLOR_P1">
</g>
<g id="EJ_P1">
</g>
<g id="Capa_13">
</g>
<g id="Capa_15">
	<g>
		<g>
			<g>
				<path class="st0" d="M127.6,60.7C94,86.1,70.8,120.8,58,164.8h57.6c10.8-28,28.2-50.3,52.2-66.9C191.8,81.3,221.2,73,256,73
					c27.6,0,52.3,6.7,74.1,20.1c21.8,13.4,39,32.6,51.6,57.6c12.6,25,18.9,54.3,18.9,87.9c0,33.2-6.3,62.2-18.9,87
					c-12.6,24.8-29.8,43.9-51.6,57.3C308.3,396.3,283.6,403,256,403c-34.8,0-64.2-8.3-88.2-24.9c-24-16.6-41.4-38.9-52.2-66.9H58
					c12.8,44,36,78.7,69.6,104.1c33.6,25.4,76.2,38.1,127.8,38.1c39.6,0,74.6-9.1,105-27.3c30.4-18.2,54.1-43.6,71.1-76.2
					c17-32.6,25.5-69.7,25.5-111.3c0-42-8.5-79.4-25.5-112.2c-17-32.8-40.7-58.3-71.1-76.5C330,31.7,295,22.6,255.4,22.6
					C203.8,22.6,161.2,35.3,127.6,60.7z"/>
			</g>
			<g>
				<line class="st1" x1="52" y1="204.5" x2="52" y2="272.5"/>
				<line class="st1" x1="101" y1="204.5" x2="101" y2="272.5"/>
			</g>
			<g>
				<path class="st0" d="M319.9,140.3c18.7,14,30.7,32.8,36,56.6h-48.8c-4.6-10.6-11.9-19-22-25.2s-21.8-9.4-35.5-9.4
					c-13.4,0-25.3,3.1-35.6,9.2s-18.4,15-24.1,26.4c-5.7,11.4-8.6,24.9-8.6,40.3c0,24.4,6.5,43.4,19.6,57.1
					c13.1,13.6,31,20.5,53.6,20.5c16.7,0,31.1-5,43.1-14.9c12-9.9,19.7-23.6,23.3-41.3h-78.9v-33.3h117.8v44.9
					c-3.3,15.4-9.7,29.6-19.3,42.6s-22.1,23.4-37.6,31.2s-33.3,11.7-53.3,11.7c-22.9,0-43.1-5-60.6-15c-17.5-10-31-24-40.6-41.9
					c-9.6-17.9-14.4-38.5-14.4-61.6s4.8-43.6,14.4-61.6c9.6-17.9,23-31.9,40.4-42.1c17.4-10.1,37.5-15.2,60.4-15.2
					C277.7,119.4,301.2,126.3,319.9,140.3z"/>
			</g>
		</g>
		<g>
			<g>
				<path class="st0" d="M550.3,218.6c-7.3,0-13.4-0.5-18.3-1.5c-4.9-1-8.8-2.6-11.9-4.9c-3-2.3-5.3-5.3-6.9-9
					c-1.5-3.8-2.6-8.4-3.2-14.1c-0.6-5.6-0.8-12.3-0.8-20.1c0-7.8,0.3-14.5,0.8-20.1s1.6-10.3,3.2-14.1c1.5-3.8,3.8-6.8,6.9-9
					c3-2.3,7-3.9,11.9-4.9s11-1.5,18.3-1.5c2.8,0,5.7,0.1,8.7,0.3c3,0.2,5.9,0.5,8.7,0.8c2.8,0.4,5.2,0.8,7.2,1.4v17.6
					c-2.9-0.3-5.6-0.5-8-0.8c-2.4-0.2-4.5-0.4-6.3-0.4s-3.3-0.1-4.5-0.1c-4.3,0-7.9,0.2-10.6,0.5s-5,1.1-6.5,2.2
					c-1.6,1.1-2.8,2.8-3.5,5s-1.2,5.2-1.5,8.9c-0.2,3.7-0.3,8.4-0.3,14.1c0,5.6,0.1,10.3,0.3,14.1s0.7,6.8,1.5,9s1.9,3.9,3.5,5
					c1.6,1.1,3.8,1.8,6.5,2.1c2.8,0.3,6.3,0.5,10.6,0.5c2.9,0,6.2-0.1,9.8-0.4c3.7-0.2,6.8-0.5,9.4-0.9v18c-2.1,0.4-4.5,0.7-7.5,1.1
					c-2.9,0.3-5.9,0.6-8.9,0.8C556,218.5,553.1,218.6,550.3,218.6z"/>
				<path class="st0" d="M631.1,218.6c-8.2,0-14.8-0.5-20-1.5c-5.2-1-9.3-2.6-12.2-4.8c-2.9-2.2-5-5.2-6.4-9
					c-1.4-3.8-2.2-8.5-2.5-14.1c-0.3-5.6-0.5-12.3-0.5-20.1c0-7.8,0.2-14.5,0.5-20.1s1.2-10.3,2.5-14.1c1.4-3.8,3.5-6.8,6.4-9
					c2.9-2.2,7-3.8,12.2-4.8c5.2-1,11.9-1.5,20-1.5c8.1,0,14.7,0.5,19.9,1.5c5.2,1,9.3,2.6,12.3,4.8c3,2.2,5.2,5.2,6.5,9
					s2.2,8.5,2.5,14.1c0.4,5.6,0.6,12.3,0.6,20.1c0,7.8-0.2,14.5-0.6,20.1c-0.4,5.6-1.2,10.3-2.5,14.1c-1.3,3.8-3.5,6.8-6.5,9
					c-3,2.2-7.1,3.8-12.3,4.8C645.8,218.1,639.1,218.6,631.1,218.6z M631.1,199.7c3.4,0,6.1-0.1,8.2-0.4c2.1-0.2,3.8-0.8,5-1.8
					c1.2-1,2.1-2.6,2.7-4.7s0.9-5.2,1.1-9c0.1-3.9,0.2-8.8,0.2-14.8c0-6-0.1-10.9-0.2-14.8c-0.1-3.9-0.5-6.9-1.1-9
					c-0.6-2.2-1.5-3.7-2.7-4.7c-1.2-1-2.9-1.6-5-1.8c-2.1-0.2-4.9-0.4-8.2-0.4c-3.3,0-6,0.1-8.2,0.4c-2.2,0.2-3.8,0.8-5.1,1.8
					c-1.2,1-2.1,2.6-2.7,4.7c-0.6,2.2-0.9,5.2-1.1,9c-0.1,3.9-0.2,8.8-0.2,14.8s0.1,10.9,0.2,14.8c0.1,3.9,0.5,6.9,1.1,9
					c0.6,2.2,1.5,3.7,2.7,4.7c1.2,1,2.9,1.6,5.1,1.8C625.1,199.6,627.8,199.7,631.1,199.7z"/>
				<path class="st0" d="M690.6,217.4v-96.8h25.2l31.5,51.9h0.7v-51.9h23.5v96.8h-22.9l-33.8-56.7h-0.7v56.7L690.6,217.4
					L690.6,217.4z"/>
				<path class="st0" d="M810.5,217.4v-77.1H784v-19.7h77.5v19.7H835v77.1L810.5,217.4L810.5,217.4z"/>
				<path class="st0" d="M874.1,217.4v-96.8H942v18.9h-43.3v19.8h36.7v18.6h-36.7v20.7H942v18.9H874.1z"/>
				<path class="st0" d="M951.2,217.4l31.2-48.6l-30.7-48.3h27.9l17.9,29.4h1.3l18.2-29.4h26.7l-30.7,47.7l31.1,49.1h-27.7
					L998,187.2h-1.4L978,217.5L951.2,217.4L951.2,217.4z"/>
				<path class="st0" d="M1075.1,217.4v-77.1h-26.5v-19.7h77.6v19.7h-26.6v77.1L1075.1,217.4L1075.1,217.4z"/>
				<path class="st0" d="M1178.1,218.6c-8.2,0-14.8-0.5-20.1-1.5c-5.2-1-9.3-2.6-12.2-4.8c-2.9-2.2-5-5.2-6.4-9
					c-1.4-3.8-2.2-8.5-2.5-14.1c-0.3-5.6-0.5-12.3-0.5-20.1c0-7.8,0.2-14.5,0.5-20.1s1.2-10.3,2.5-14.1s3.5-6.8,6.4-9
					c2.9-2.2,7-3.8,12.2-4.8c5.2-1,11.9-1.5,20.1-1.5c8.1,0,14.7,0.5,19.9,1.5c5.2,1,9.3,2.6,12.3,4.8c3,2.2,5.2,5.2,6.5,9
					c1.3,3.8,2.2,8.5,2.5,14.1s0.6,12.3,0.6,20.1c0,7.8-0.2,14.5-0.6,20.1c-0.4,5.6-1.2,10.3-2.5,14.1s-3.5,6.8-6.5,9
					c-3,2.2-7.1,3.8-12.3,4.8C1192.8,218.1,1186.2,218.6,1178.1,218.6z M1178.1,199.7c3.4,0,6.1-0.1,8.2-0.4c2.1-0.2,3.8-0.8,5-1.8
					c1.2-1,2.1-2.6,2.7-4.7s0.9-5.2,1.1-9c0.1-3.9,0.2-8.8,0.2-14.8c0-6-0.1-10.9-0.2-14.8c-0.1-3.9-0.5-6.9-1.1-9
					c-0.6-2.2-1.5-3.7-2.7-4.7c-1.2-1-2.9-1.6-5-1.8c-2.1-0.2-4.9-0.4-8.2-0.4c-3.3,0-6,0.1-8.2,0.4c-2.2,0.2-3.8,0.8-5.1,1.8
					s-2.1,2.6-2.7,4.7c-0.6,2.2-0.9,5.2-1.1,9c-0.1,3.9-0.2,8.8-0.2,14.8s0.1,10.9,0.2,14.8c0.1,3.9,0.5,6.9,1.1,9
					c0.6,2.2,1.4,3.7,2.7,4.7c1.2,1,2.9,1.6,5.1,1.8C1172.1,199.6,1174.8,199.7,1178.1,199.7z"/>
				<path class="st0" d="M1273.1,218.6c-3.8,0-7.8-0.1-12.2-0.3s-8.6-0.5-12.8-0.8s-7.9-0.8-11.2-1.1v-18.1c3.5,0.3,7,0.6,10.5,0.8
					s6.9,0.5,10.1,0.6c3.2,0.1,5.9,0.1,8,0.1c4.5,0,7.9-0.2,10.3-0.5s4.1-0.8,5.2-1.5c0.8-0.7,1.3-1.4,1.6-2.1s0.5-1.6,0.6-2.7
					s0.1-2.2,0.1-3.5c0-2-0.1-3.5-0.3-4.7c-0.2-1.2-0.7-2.1-1.4-2.7c-0.7-0.7-1.8-1.1-3.2-1.5s-3.2-0.6-5.5-0.9l-19.8-2.5
					c-3.8-0.5-7-1.4-9.4-2.9c-2.4-1.4-4.4-3.4-5.8-5.8s-2.4-5.3-3-8.7c-0.6-3.3-0.8-7.1-0.8-11.2c0-6.4,0.9-11.5,2.8-15.3
					c1.9-3.8,4.5-6.7,7.8-8.7c3.3-2,7.2-3.3,11.7-4c4.5-0.7,9.3-1,14.6-1c3.8,0,7.7,0.1,11.7,0.3c4,0.2,7.8,0.6,11.4,1
					c3.6,0.4,6.5,0.9,8.9,1.5V140c-2.3-0.4-5.1-0.7-8.2-0.9c-3.1-0.2-6.4-0.4-9.8-0.6s-6.6-0.2-9.6-0.2c-3.7,0-6.6,0.1-8.7,0.4
					c-2.2,0.2-3.8,0.7-5.1,1.3c-1.3,0.8-2.1,1.7-2.5,3c-0.3,1.2-0.5,2.8-0.5,4.6c0,2.4,0.2,4.1,0.6,5.4c0.4,1.3,1.2,2.1,2.5,2.6
					c1.3,0.5,3.3,0.9,6.1,1.3l19.3,2.3c2.6,0.3,5,0.8,7.3,1.4c2.2,0.7,4.2,1.7,6.1,3.1c1.8,1.4,3.3,3.4,4.6,6.1
					c0.7,1.2,1.2,2.7,1.6,4.4c0.4,1.7,0.7,3.7,1,6c0.3,2.3,0.4,4.8,0.4,7.6c0,5.5-0.6,10.2-1.7,14c-1.1,3.8-2.7,6.8-4.8,9
					c-2.1,2.2-4.6,3.9-7.5,5.1c-2.9,1.2-6.1,1.9-9.6,2.3C1280.8,218.4,1277,218.6,1273.1,218.6z"/>
			</g>
			<g>
				<path class="st0" d="M586.7,356.5c-7.2,0-13.3-0.5-18.3-1.4c-5-0.9-9.1-2.5-12.4-4.7c-3.3-2.2-5.8-5.2-7.7-9
					c-1.8-3.8-3.1-8.5-3.8-14.1s-1.1-12.4-1.1-20.3c0-7.9,0.3-14.6,1.1-20.3c0.7-5.6,2-10.3,3.9-14.1c1.9-3.8,4.5-6.8,7.7-9
					c3.3-2.2,7.4-3.8,12.4-4.7c5-0.9,11-1.4,18.2-1.4c3.2,0,6.8,0.1,10.7,0.4s7.9,0.7,11.8,1.1s7.5,1,10.9,1.7v17.6
					c-3.2-0.5-6.4-0.8-9.5-1.1c-3.1-0.2-6-0.4-8.7-0.6c-2.6-0.2-4.8-0.3-6.5-0.3c-5.1,0-9.2,0.1-12.5,0.3c-3.3,0.2-6,0.8-8,1.8
					c-2.1,1-3.6,2.6-4.6,4.7c-1,2.2-1.7,5.2-2,9.1c-0.3,3.9-0.5,8.8-0.5,14.9c0,5.4,0.1,9.9,0.3,13.5s0.8,6.7,1.5,9s1.9,4.1,3.4,5.4
					c1.5,1.3,3.4,2.1,5.8,2.6c2.4,0.5,5.3,0.7,8.8,0.7c1.1,0,2.3,0,3.7-0.1c1.3,0,2.6-0.1,3.8-0.2s2.3-0.1,3.1-0.1v-21h-13.8v-17.6
					h36.2v54.2c-3.4,0.7-7.1,1.2-11.1,1.6c-4,0.4-8,0.8-12,1.1S589.9,356.5,586.7,356.5z"/>
				<path class="st0" d="M678.2,356.5c-7.2,0-13.2-0.5-18-1.3c-4.8-0.9-8.6-2.3-11.4-4.3c-2.8-2-4.9-4.7-6.3-8.1
					c-1.4-3.4-2.3-7.7-2.7-12.8c-0.4-5.1-0.6-11.2-0.6-18.2v-53.2h24.5v58.4c0,4.5,0.1,8.1,0.3,10.9s0.8,4.9,1.7,6.3
					c0.9,1.4,2.3,2.3,4.4,2.7c2,0.4,4.8,0.6,8.2,0.6s6.2-0.2,8.2-0.6s3.4-1.3,4.3-2.7c0.9-1.4,1.5-3.5,1.7-6.3
					c0.2-2.8,0.3-6.4,0.3-10.9v-58.4h24.5v53.2c0,7-0.2,13.1-0.6,18.2c-0.4,5.1-1.3,9.4-2.7,12.8s-3.5,6.1-6.3,8.1
					s-6.6,3.4-11.4,4.3C691.5,356,685.4,356.5,678.2,356.5z"/>
				<path class="st0" d="M736.8,355.4v-96.8h67.8v18.9h-43.3v19.8H798v18.6h-36.7v20.7h43.3v18.9L736.8,355.4L736.8,355.4z"/>
				<path class="st0" d="M822,355.4v-96.8h48c6.3,0,11.4,0.7,15.3,2c3.9,1.4,6.8,3.4,8.9,6c2,2.7,3.4,6,4.1,9.9s1.1,8.3,1.1,13.3
					c0,3.7-0.3,7.3-0.8,11s-1.8,7.1-3.6,10.1c-1.8,3-4.6,5.4-8.4,7l14.6,37.4h-25.5L862,316.7l6.2,3.4c-0.8,0.5-1.7,0.8-2.6,0.8
					c-0.9,0.1-2,0.1-3.3,0.1h-15.8v34.3L822,355.4L822,355.4z M846.5,302.9h14.1c3.2,0,5.8-0.2,7.7-0.5s3.3-1,4.3-1.9
					s1.5-2.3,1.8-3.9s0.4-3.9,0.4-6.5c0-2.7-0.1-4.9-0.3-6.6c-0.2-1.7-0.8-3-1.7-3.9c-0.9-0.9-2.3-1.5-4.2-1.9
					c-1.9-0.4-4.6-0.6-8-0.6h-14.1V302.9z"/>
				<path class="st0" d="M916.6,355.4v-96.8h48c6.3,0,11.4,0.7,15.3,2c3.9,1.4,6.8,3.4,8.9,6c2,2.7,3.4,6,4.1,9.9s1.1,8.3,1.1,13.3
					c0,3.7-0.3,7.3-0.8,11s-1.8,7.1-3.6,10.1c-1.8,3-4.6,5.4-8.4,7l14.6,37.4h-25.5l-13.7-38.7l6.2,3.4c-0.8,0.5-1.7,0.8-2.6,0.8
					c-0.9,0.1-2,0.1-3.3,0.1h-15.8v34.3L916.6,355.4L916.6,355.4z M941.1,302.9h14.1c3.2,0,5.8-0.2,7.7-0.5s3.3-1,4.3-1.9
					s1.5-2.3,1.8-3.9s0.4-3.9,0.4-6.5c0-2.7-0.1-4.9-0.3-6.6c-0.2-1.7-0.8-3-1.7-3.9c-0.9-0.9-2.3-1.5-4.2-1.9
					c-1.9-0.4-4.6-0.6-8-0.6h-14.1V302.9z"/>
				<path class="st0" d="M1011.2,355.4v-96.8h67.8v18.9h-43.3v19.8h36.7v18.6h-36.7v20.7h43.3v18.9L1011.2,355.4L1011.2,355.4z"/>
				<path class="st0" d="M1096.5,355.4v-96.8h48c6.3,0,11.4,0.7,15.3,2c3.9,1.4,6.8,3.4,8.9,6c2,2.7,3.4,6,4.1,9.9s1.1,8.3,1.1,13.3
					c0,3.7-0.3,7.3-0.8,11c-0.6,3.7-1.8,7.1-3.6,10.1c-1.8,3-4.6,5.4-8.4,7l14.6,37.4h-25.5l-13.7-38.7l6.2,3.4
					c-0.8,0.5-1.7,0.8-2.6,0.8s-2,0.1-3.3,0.1H1121v34.3L1096.5,355.4L1096.5,355.4z M1121,302.9h14.1c3.2,0,5.8-0.2,7.7-0.5
					s3.3-1,4.3-1.9c0.9-0.9,1.6-2.3,1.8-3.9c0.3-1.7,0.4-3.9,0.4-6.5c0-2.7-0.1-4.9-0.3-6.6c-0.2-1.7-0.8-3-1.7-3.9
					c-0.9-0.9-2.3-1.5-4.2-1.9c-1.9-0.4-4.6-0.6-7.9-0.6H1121L1121,302.9L1121,302.9z"/>
				<path class="st0" d="M1230.5,356.5c-8.2,0-14.8-0.5-20.1-1.5c-5.2-1-9.3-2.6-12.2-4.8c-2.9-2.2-5-5.2-6.4-9
					c-1.4-3.8-2.2-8.5-2.5-14.1c-0.3-5.6-0.5-12.3-0.5-20.1s0.2-14.5,0.5-20.1s1.2-10.3,2.5-14.1c1.4-3.8,3.5-6.8,6.4-9
					c2.9-2.2,7-3.8,12.2-4.8c5.2-1,11.9-1.5,20.1-1.5c8.1,0,14.7,0.5,19.9,1.5c5.2,1,9.3,2.6,12.3,4.8c3,2.2,5.2,5.2,6.5,9
					c1.3,3.8,2.2,8.5,2.5,14.1s0.6,12.3,0.6,20.1s-0.2,14.5-0.6,20.1c-0.4,5.6-1.2,10.3-2.5,14.1c-1.3,3.8-3.5,6.8-6.5,9
					c-3,2.2-7.1,3.8-12.3,4.8C1245.2,356,1238.5,356.5,1230.5,356.5z M1230.5,337.6c3.4,0,6.1-0.1,8.2-0.4s3.8-0.8,5-1.8
					c1.2-1,2.1-2.5,2.7-4.7s0.9-5.2,1.1-9c0.1-3.9,0.2-8.8,0.2-14.8c0-6-0.1-10.9-0.2-14.8s-0.5-6.9-1.1-9c-0.6-2.2-1.5-3.7-2.7-4.7
					c-1.2-1-2.9-1.6-5-1.8c-2.1-0.2-4.9-0.4-8.2-0.4c-3.3,0-6,0.1-8.2,0.4c-2.2,0.2-3.8,0.8-5.1,1.8s-2.1,2.6-2.7,4.7
					c-0.6,2.2-0.9,5.2-1.1,9c-0.1,3.9-0.2,8.8-0.2,14.8s0.1,10.9,0.2,14.8s0.5,6.9,1.1,9c0.6,2.2,1.4,3.7,2.7,4.7
					c1.2,1,2.9,1.6,5.1,1.8C1224.4,337.5,1227.2,337.6,1230.5,337.6z"/>
			</g>
			<g>
				<line class="st2" x1="507.5" y1="259.3" x2="507.5" y2="355"/>
				<line class="st2" x1="1301.3" y1="259.3" x2="1301.3" y2="355"/>
			</g>
		</g>
	</g>
</g>
<g id="Capa_14">
</g>
</svg>
