<?xml version="1.0" encoding="utf-8"?>
<!-- Generator: Adobe Illustrator 23.0.2, SVG Export Plug-In . SVG Version: 6.00 Build 0)  -->
<svg version="1.1" xmlns="http://www.w3.org/2000/svg" xmlns:xlink="http://www.w3.org/1999/xlink" x="0px" y="0px"
	 viewBox="0 0 1354 481" style="enable-background:new 0 0 1354 481;" xml:space="preserve">
<style type="text/css">
	.st0{fill:#921631;}
	.st1{fill:#FE0002;}
	.st2{fill:#FEB2B3;}
	.st3{display:none;fill:#F2A6B7;}
	.st4{display:none;}
	.st5{display:inline;}
	.st6{fill:#FEA50D;}
	.st7{fill:#FDD400;}
	.st8{fill:#FFFFFF;}
	.st9{fill:#BC1C42;}
	.st10{display:none;fill:#908FB2;}
	.st11{display:none;fill:#FED300;}
	.st12{display:inline;fill:#BC1C42;}
	.st13{display:none;fill:#B69DFE;}
	.st14{display:none;fill:#B7BDE9;}
	.st15{fill:#7B152F;}
	.st16{fill:none;stroke:#000000;stroke-miterlimit:10;}
	.st17{display:none;fill:none;stroke:#FE0002;stroke-width:5;stroke-miterlimit:10;}
	.st18{display:inline;fill:none;stroke:#FEA50D;stroke-width:5;stroke-miterlimit:10;}
	.st19{display:inline;fill:#921631;}
	.st20{fill:none;stroke:#FEA50D;stroke-width:5;stroke-miterlimit:10;}
	.st21{fill:none;stroke:#FEA50D;stroke-width:7.0368;stroke-miterlimit:10;}
	.st22{display:inline;fill:none;stroke:#FE0002;stroke-width:2.8846;stroke-miterlimit:10;}
	.st23{fill:none;stroke:#921631;stroke-width:10;stroke-miterlimit:10;}
</style>
<g id="Capa_1">
</g>
<g id="Logo">
</g>
<g id="Capa_2">
</g>
<g id="Capa_4">
</g>
<g id="Capa_5">
</g>
<g id="Capa_6">
</g>
<g id="Capa_3">
</g>
<g id="LOGO_P1">
</g>
<g id="TODO_P1">
</g>
<g id="COLORES_P1">
</g>
<g id="VERSION_DE_COLOR_P1">
</g>
<g id="EJ_P1">
</g>
<g id="Capa_13">
</g>
<g id="Capa_15">
	<g>
		<g>
			<g>
				<path class="st0" d="M127.6,60.7C94,86.11,70.81,120.8,58,164.8h57.6c10.8-27.99,28.2-50.3,52.2-66.9
					C191.8,81.31,221.2,73,256,73c27.6,0,52.3,6.7,74.1,20.1c21.81,13.41,39,32.61,51.6,57.6c12.6,25,18.9,54.3,18.9,87.9
					c0,33.21-6.3,62.2-18.9,87c-12.6,24.81-29.79,43.9-51.6,57.3C308.3,396.31,283.6,403,256,403c-34.8,0-64.2-8.3-88.2-24.9
					c-24-16.59-41.4-38.9-52.2-66.9H58c12.81,44.01,36,78.7,69.6,104.1c33.6,25.41,76.2,38.1,127.8,38.1c39.6,0,74.61-9.09,105-27.3
					c30.4-18.2,54.1-43.59,71.1-76.2c17.01-32.6,25.5-69.69,25.5-111.3c0-42-8.49-79.4-25.5-112.2c-17-32.79-40.7-58.29-71.1-76.5
					c-30.39-18.2-65.4-27.3-105-27.3C203.8,22.6,161.2,35.3,127.6,60.7z"/>
			</g>
			<g>
				<line class="st20" x1="52" y1="204.5" x2="52" y2="272.5"/>
				<line class="st20" x1="101" y1="204.5" x2="101" y2="272.5"/>
			</g>
			<g>
				<path class="st6" d="M319.93,140.32c18.7,13.97,30.69,32.83,35.97,56.59h-48.84c-4.62-10.56-11.94-18.97-21.95-25.24
					c-10.01-6.27-21.84-9.41-35.47-9.41c-13.42,0-25.3,3.08-35.64,9.24c-10.34,6.16-18.37,14.96-24.09,26.4
					c-5.72,11.44-8.58,24.86-8.58,40.26c0,24.42,6.54,43.45,19.64,57.09c13.09,13.64,30.96,20.46,53.63,20.46
					c16.72,0,31.07-4.95,43.06-14.85c11.99-9.9,19.74-23.65,23.27-41.25h-78.87v-33.33h117.81v44.88
					c-3.3,15.4-9.74,29.59-19.31,42.57c-9.57,12.98-22.11,23.38-37.62,31.19c-15.51,7.81-33.28,11.71-53.3,11.71
					c-22.88,0-43.06-5-60.55-15.02c-17.49-10.01-31.02-23.98-40.59-41.91c-9.57-17.93-14.35-38.45-14.35-61.55
					s4.79-43.61,14.35-61.55c9.57-17.93,23.04-31.95,40.43-42.07c17.38-10.12,37.51-15.18,60.39-15.18
					C277.69,119.36,301.23,126.35,319.93,140.32z"/>
			</g>
		</g>
		<g>
			<g>
				<path class="st1" d="M550.29,218.58c-7.32,0-13.42-0.49-18.3-1.48c-4.88-0.99-8.84-2.6-11.89-4.86
					c-3.05-2.25-5.35-5.25-6.9-9.01c-1.55-3.75-2.6-8.44-3.17-14.07c-0.56-5.63-0.84-12.34-0.84-20.13c0-7.79,0.28-14.5,0.84-20.13
					c0.56-5.63,1.62-10.32,3.17-14.07c1.55-3.75,3.85-6.76,6.9-9.01c3.05-2.25,7.01-3.87,11.89-4.86c4.88-0.99,10.98-1.48,18.3-1.48
					c2.81,0,5.72,0.09,8.73,0.28c3,0.19,5.91,0.47,8.73,0.84c2.81,0.38,5.21,0.84,7.18,1.41v17.59c-2.91-0.28-5.56-0.54-7.95-0.77
					c-2.39-0.23-4.48-0.37-6.26-0.42c-1.78-0.05-3.29-0.07-4.5-0.07c-4.32,0-7.86,0.16-10.63,0.49c-2.77,0.33-4.95,1.06-6.54,2.18
					c-1.6,1.13-2.77,2.79-3.52,5c-0.75,2.21-1.24,5.16-1.48,8.87c-0.24,3.71-0.35,8.42-0.35,14.14c0,5.63,0.12,10.32,0.35,14.07
					c0.23,3.75,0.73,6.76,1.48,9.01c0.75,2.25,1.92,3.92,3.52,5c1.59,1.08,3.78,1.78,6.54,2.11c2.77,0.33,6.31,0.49,10.63,0.49
					c2.91,0,6.19-0.12,9.85-0.35c3.66-0.23,6.8-0.54,9.43-0.91v18.01c-2.06,0.38-4.55,0.73-7.46,1.06
					c-2.91,0.33-5.89,0.58-8.94,0.77C556.04,218.48,553.1,218.58,550.29,218.58z"/>
				<path class="st1" d="M631.07,218.58c-8.16,0-14.85-0.49-20.05-1.48c-5.21-0.99-9.27-2.58-12.17-4.79
					c-2.91-2.2-5.04-5.21-6.4-9.01c-1.36-3.8-2.21-8.51-2.53-14.14c-0.33-5.63-0.49-12.34-0.49-20.13c0-7.79,0.16-14.5,0.49-20.13
					c0.33-5.63,1.17-10.34,2.53-14.14c1.36-3.8,3.49-6.8,6.4-9.01c2.91-2.2,6.97-3.8,12.17-4.78c5.21-0.99,11.89-1.48,20.05-1.48
					c8.07,0,14.71,0.49,19.91,1.48c5.21,0.99,9.31,2.58,12.31,4.78c3,2.21,5.16,5.21,6.47,9.01c1.31,3.8,2.16,8.51,2.53,14.14
					c0.37,5.63,0.56,12.34,0.56,20.13c0,7.79-0.19,14.5-0.56,20.13c-0.38,5.63-1.22,10.34-2.53,14.14c-1.31,3.8-3.47,6.8-6.47,9.01
					c-3,2.21-7.11,3.8-12.31,4.79C645.78,218.09,639.14,218.58,631.07,218.58z M631.07,199.72c3.38,0,6.12-0.12,8.23-0.35
					c2.11-0.23,3.78-0.84,5-1.83c1.22-0.98,2.11-2.55,2.67-4.71c0.56-2.16,0.91-5.16,1.06-9.01c0.14-3.85,0.21-8.77,0.21-14.78
					c0-6-0.07-10.93-0.21-14.78c-0.14-3.85-0.49-6.85-1.06-9.01c-0.56-2.16-1.46-3.73-2.67-4.71c-1.22-0.98-2.89-1.59-5-1.83
					c-2.11-0.23-4.86-0.35-8.23-0.35c-3.29,0-6.01,0.12-8.16,0.35c-2.16,0.24-3.85,0.84-5.07,1.83c-1.22,0.99-2.11,2.56-2.67,4.71
					c-0.56,2.16-0.92,5.16-1.06,9.01c-0.14,3.85-0.21,8.77-0.21,14.78c0,6.01,0.07,10.93,0.21,14.78c0.14,3.85,0.49,6.85,1.06,9.01
					c0.56,2.16,1.45,3.73,2.67,4.71c1.22,0.99,2.91,1.6,5.07,1.83C625.07,199.6,627.79,199.72,631.07,199.72z"/>
				<path class="st1" d="M690.6,217.45v-96.83h25.19l31.52,51.93h0.7v-51.93h23.5v96.83h-22.94l-33.78-56.72h-0.7v56.72H690.6z"/>
				<path class="st1" d="M810.51,217.45v-77.12h-26.46v-19.7h77.55v19.7H835v77.12H810.51z"/>
				<path class="st1" d="M874.12,217.45v-96.83h67.84v18.86h-43.35v19.84h36.73v18.58h-36.73v20.69h43.35v18.86H874.12z"/>
				<path class="st1" d="M951.24,217.45l31.24-48.55l-30.68-48.27h27.87l17.87,29.41h1.27l18.15-29.41h26.74l-30.68,47.71
					l31.1,49.12h-27.73l-18.44-30.26h-1.41l-18.58,30.26H951.24z"/>
				<path class="st1" d="M1075.09,217.45v-77.12h-26.46v-19.7h77.55v19.7h-26.6v77.12H1075.09z"/>
				<path class="st1" d="M1178.11,218.58c-8.16,0-14.85-0.49-20.05-1.48c-5.21-0.99-9.27-2.58-12.17-4.79
					c-2.91-2.2-5.04-5.21-6.4-9.01c-1.36-3.8-2.21-8.51-2.53-14.14c-0.33-5.63-0.49-12.34-0.49-20.13c0-7.79,0.16-14.5,0.49-20.13
					c0.33-5.63,1.17-10.34,2.53-14.14c1.36-3.8,3.49-6.8,6.4-9.01c2.91-2.2,6.97-3.8,12.17-4.78c5.21-0.99,11.89-1.48,20.05-1.48
					c8.07,0,14.71,0.49,19.91,1.48c5.21,0.99,9.31,2.58,12.31,4.78c3,2.21,5.16,5.21,6.47,9.01c1.31,3.8,2.16,8.51,2.53,14.14
					c0.37,5.63,0.56,12.34,0.56,20.13c0,7.79-0.19,14.5-0.56,20.13c-0.38,5.63-1.22,10.34-2.53,14.14c-1.31,3.8-3.47,6.8-6.47,9.01
					c-3,2.21-7.11,3.8-12.31,4.79C1192.81,218.09,1186.17,218.58,1178.11,218.58z M1178.11,199.72c3.38,0,6.12-0.12,8.23-0.35
					c2.11-0.23,3.78-0.84,5-1.83c1.22-0.98,2.11-2.55,2.67-4.71c0.56-2.16,0.92-5.16,1.06-9.01c0.14-3.85,0.21-8.77,0.21-14.78
					c0-6-0.07-10.93-0.21-14.78c-0.14-3.85-0.49-6.85-1.06-9.01c-0.56-2.16-1.46-3.73-2.67-4.71c-1.22-0.98-2.89-1.59-5-1.83
					c-2.11-0.23-4.86-0.35-8.23-0.35c-3.29,0-6.01,0.12-8.16,0.35c-2.16,0.24-3.85,0.84-5.07,1.83c-1.22,0.99-2.11,2.56-2.67,4.71
					c-0.56,2.16-0.91,5.16-1.06,9.01c-0.14,3.85-0.21,8.77-0.21,14.78c0,6.01,0.07,10.93,0.21,14.78c0.14,3.85,0.49,6.85,1.06,9.01
					c0.56,2.16,1.45,3.73,2.67,4.71c1.22,0.99,2.91,1.6,5.07,1.83C1172.1,199.6,1174.82,199.72,1178.11,199.72z"/>
				<path class="st1" d="M1273.1,218.58c-3.75,0-7.81-0.09-12.17-0.28c-4.36-0.19-8.63-0.47-12.81-0.84
					c-4.18-0.37-7.91-0.75-11.19-1.13v-18.15c3.47,0.28,6.97,0.56,10.49,0.84c3.52,0.28,6.87,0.47,10.06,0.56
					c3.19,0.09,5.86,0.14,8.02,0.14c4.5,0,7.93-0.16,10.27-0.49c2.34-0.33,4.08-0.82,5.21-1.48c0.75-0.66,1.29-1.36,1.62-2.11
					c0.33-0.75,0.54-1.64,0.63-2.67c0.09-1.03,0.14-2.2,0.14-3.52c0-1.97-0.12-3.54-0.35-4.71c-0.24-1.17-0.7-2.09-1.41-2.74
					c-0.7-0.66-1.76-1.15-3.17-1.48c-1.41-0.33-3.24-0.63-5.49-0.91l-19.84-2.53c-3.85-0.47-6.99-1.43-9.43-2.89
					c-2.44-1.45-4.36-3.4-5.77-5.84c-1.41-2.44-2.39-5.32-2.96-8.66c-0.56-3.33-0.84-7.06-0.84-11.19c0-6.38,0.94-11.47,2.81-15.27
					c1.88-3.8,4.48-6.71,7.81-8.73c3.33-2.02,7.22-3.35,11.68-4.01c4.46-0.65,9.31-0.98,14.57-0.98c3.75,0,7.65,0.12,11.68,0.35
					c4.03,0.24,7.83,0.56,11.4,0.98c3.56,0.42,6.52,0.91,8.87,1.48v17.73c-2.35-0.37-5.09-0.68-8.23-0.91
					c-3.14-0.23-6.4-0.42-9.78-0.56c-3.38-0.14-6.57-0.21-9.57-0.21c-3.66,0-6.57,0.12-8.73,0.35c-2.16,0.24-3.85,0.68-5.07,1.34
					c-1.31,0.75-2.14,1.74-2.46,2.96c-0.33,1.22-0.49,2.77-0.49,4.64c0,2.35,0.19,4.15,0.56,5.42c0.37,1.27,1.22,2.14,2.53,2.6
					c1.31,0.47,3.33,0.89,6.05,1.27l19.28,2.25c2.63,0.28,5.04,0.75,7.25,1.41c2.2,0.66,4.22,1.69,6.05,3.1
					c1.83,1.41,3.35,3.43,4.57,6.05c0.66,1.22,1.17,2.7,1.55,4.43c0.37,1.74,0.7,3.73,0.99,5.98c0.28,2.25,0.42,4.79,0.42,7.6
					c0,5.54-0.56,10.2-1.69,14c-1.13,3.8-2.72,6.8-4.79,9.01c-2.06,2.21-4.55,3.89-7.46,5.07c-2.91,1.17-6.12,1.92-9.64,2.25
					C1280.77,218.41,1277.04,218.58,1273.1,218.58z"/>
			</g>
			<g>
				<path class="st0" d="M586.74,356.5c-7.23,0-13.32-0.47-18.3-1.41c-4.97-0.94-9.1-2.51-12.38-4.71c-3.29-2.2-5.84-5.21-7.67-9.01
					c-1.83-3.8-3.1-8.51-3.8-14.14c-0.7-5.63-1.06-12.38-1.06-20.27c0-7.88,0.35-14.64,1.06-20.27c0.7-5.63,1.99-10.34,3.87-14.14
					c1.88-3.8,4.46-6.8,7.74-9.01c3.28-2.2,7.41-3.78,12.38-4.71c4.97-0.94,11.02-1.41,18.15-1.41c3.19,0,6.76,0.14,10.7,0.42
					c3.94,0.28,7.86,0.66,11.75,1.13c3.89,0.47,7.53,1.03,10.91,1.69v17.59c-3.19-0.47-6.36-0.82-9.5-1.06
					c-3.14-0.23-6.03-0.44-8.66-0.63c-2.63-0.19-4.78-0.28-6.47-0.28c-5.07,0-9.24,0.09-12.53,0.28c-3.29,0.19-5.96,0.77-8.02,1.76
					c-2.07,0.99-3.61,2.56-4.64,4.71c-1.03,2.16-1.71,5.19-2.04,9.08c-0.33,3.89-0.49,8.84-0.49,14.85c0,5.35,0.12,9.85,0.35,13.51
					c0.23,3.66,0.75,6.66,1.55,9.01c0.8,2.35,1.92,4.15,3.38,5.42c1.45,1.27,3.38,2.14,5.77,2.6c2.39,0.47,5.32,0.7,8.8,0.7
					c1.13,0,2.34-0.02,3.66-0.07c1.31-0.05,2.58-0.12,3.8-0.21c1.22-0.09,2.25-0.14,3.1-0.14v-20.97h-13.79v-17.59h36.17v54.18
					c-3.38,0.66-7.08,1.2-11.12,1.62c-4.04,0.42-8.02,0.77-11.96,1.06S589.93,356.5,586.74,356.5z"/>
				<path class="st0" d="M678.22,356.5c-7.23,0-13.23-0.45-18.01-1.34c-4.78-0.89-8.58-2.32-11.4-4.29
					c-2.81-1.97-4.93-4.67-6.33-8.09c-1.41-3.42-2.32-7.69-2.74-12.81c-0.42-5.11-0.63-11.19-0.63-18.23v-53.2h24.49v58.41
					c0,4.5,0.12,8.14,0.35,10.91c0.23,2.77,0.8,4.86,1.69,6.26c0.89,1.41,2.34,2.32,4.36,2.74c2.02,0.42,4.76,0.63,8.23,0.63
					c3.47,0,6.19-0.21,8.16-0.63c1.97-0.42,3.4-1.34,4.29-2.74c0.89-1.41,1.45-3.49,1.69-6.26c0.23-2.77,0.35-6.4,0.35-10.91v-58.41
					h24.49v53.2c0,7.04-0.21,13.11-0.63,18.23c-0.42,5.11-1.31,9.38-2.67,12.81c-1.36,3.43-3.45,6.12-6.26,8.09
					c-2.81,1.97-6.61,3.4-11.4,4.29C691.45,356.05,685.44,356.5,678.22,356.5z"/>
				<path class="st0" d="M736.76,355.37v-96.83h67.84v18.86h-43.35v19.84h36.73v18.58h-36.73v20.69h43.35v18.86H736.76z"/>
				<path class="st0" d="M822.05,355.37v-96.83h47.99c6.29,0,11.38,0.68,15.27,2.04c3.89,1.36,6.85,3.38,8.87,6.05
					c2.02,2.67,3.38,5.96,4.08,9.85c0.7,3.89,1.06,8.33,1.06,13.3c0,3.66-0.28,7.34-0.84,11.05c-0.56,3.71-1.76,7.09-3.59,10.13
					c-1.83,3.05-4.62,5.37-8.37,6.97l14.64,37.44h-25.47l-13.65-38.7l6.19,3.38c-0.84,0.47-1.71,0.75-2.6,0.84
					c-0.89,0.09-1.99,0.14-3.31,0.14h-15.76v34.34H822.05z M846.53,302.88h14.07c3.19,0,5.75-0.16,7.67-0.49
					c1.92-0.33,3.35-0.96,4.29-1.9c0.94-0.94,1.55-2.25,1.83-3.94c0.28-1.69,0.42-3.85,0.42-6.47c0-2.72-0.12-4.93-0.35-6.61
					c-0.24-1.69-0.8-2.98-1.69-3.87c-0.89-0.89-2.3-1.52-4.22-1.9c-1.92-0.37-4.57-0.56-7.95-0.56h-14.07V302.88z"/>
				<path class="st0" d="M916.62,355.37v-96.83h47.99c6.29,0,11.38,0.68,15.27,2.04c3.89,1.36,6.85,3.38,8.87,6.05
					c2.02,2.67,3.38,5.96,4.08,9.85c0.7,3.89,1.06,8.33,1.06,13.3c0,3.66-0.28,7.34-0.84,11.05c-0.56,3.71-1.76,7.09-3.59,10.13
					c-1.83,3.05-4.62,5.37-8.37,6.97l14.64,37.44h-25.47l-13.65-38.7l6.19,3.38c-0.84,0.47-1.71,0.75-2.6,0.84
					c-0.89,0.09-1.99,0.14-3.31,0.14h-15.76v34.34H916.62z M941.11,302.88h14.07c3.19,0,5.75-0.16,7.67-0.49
					c1.92-0.33,3.35-0.96,4.29-1.9c0.94-0.94,1.55-2.25,1.83-3.94c0.28-1.69,0.42-3.85,0.42-6.47c0-2.72-0.12-4.93-0.35-6.61
					c-0.24-1.69-0.8-2.98-1.69-3.87c-0.89-0.89-2.3-1.52-4.22-1.9c-1.92-0.37-4.57-0.56-7.95-0.56h-14.07V302.88z"/>
				<path class="st0" d="M1011.19,355.37v-96.83h67.83v18.86h-43.35v19.84h36.73v18.58h-36.73v20.69h43.35v18.86H1011.19z"/>
				<path class="st0" d="M1096.48,355.37v-96.83h47.99c6.28,0,11.38,0.68,15.27,2.04c3.89,1.36,6.85,3.38,8.87,6.05
					c2.02,2.67,3.38,5.96,4.08,9.85c0.7,3.89,1.06,8.33,1.06,13.3c0,3.66-0.28,7.34-0.84,11.05c-0.56,3.71-1.76,7.09-3.59,10.13
					c-1.83,3.05-4.62,5.37-8.37,6.97l14.64,37.44h-25.47l-13.65-38.7l6.19,3.38c-0.84,0.47-1.71,0.75-2.6,0.84
					c-0.89,0.09-1.99,0.14-3.31,0.14h-15.76v34.34H1096.48z M1120.97,302.88h14.07c3.19,0,5.75-0.16,7.67-0.49
					c1.92-0.33,3.35-0.96,4.29-1.9c0.94-0.94,1.55-2.25,1.83-3.94c0.28-1.69,0.42-3.85,0.42-6.47c0-2.72-0.12-4.93-0.35-6.61
					c-0.23-1.69-0.8-2.98-1.69-3.87c-0.89-0.89-2.3-1.52-4.22-1.9c-1.92-0.37-4.57-0.56-7.95-0.56h-14.07V302.88z"/>
				<path class="st0" d="M1230.46,356.5c-8.16,0-14.85-0.49-20.05-1.48c-5.21-0.99-9.27-2.58-12.17-4.79
					c-2.91-2.2-5.04-5.21-6.4-9.01c-1.36-3.8-2.21-8.51-2.53-14.14c-0.33-5.63-0.49-12.34-0.49-20.13c0-7.79,0.16-14.5,0.49-20.13
					c0.33-5.63,1.17-10.34,2.53-14.14c1.36-3.8,3.49-6.8,6.4-9.01c2.91-2.2,6.97-3.8,12.17-4.78c5.21-0.99,11.89-1.48,20.05-1.48
					c8.07,0,14.71,0.49,19.91,1.48c5.21,0.99,9.31,2.58,12.31,4.78c3,2.21,5.16,5.21,6.47,9.01c1.31,3.8,2.16,8.51,2.53,14.14
					c0.37,5.63,0.56,12.34,0.56,20.13c0,7.79-0.19,14.5-0.56,20.13c-0.38,5.63-1.22,10.34-2.53,14.14c-1.32,3.8-3.47,6.8-6.47,9.01
					c-3,2.21-7.11,3.8-12.31,4.79C1245.17,356.01,1238.53,356.5,1230.46,356.5z M1230.46,337.64c3.38,0,6.12-0.12,8.23-0.35
					c2.11-0.23,3.78-0.84,5-1.83c1.22-0.98,2.11-2.55,2.67-4.71c0.56-2.16,0.91-5.16,1.06-9.01c0.14-3.85,0.21-8.77,0.21-14.78
					c0-6-0.07-10.93-0.21-14.78c-0.14-3.85-0.49-6.85-1.06-9.01c-0.56-2.16-1.46-3.73-2.67-4.71c-1.22-0.98-2.89-1.59-5-1.83
					c-2.11-0.23-4.86-0.35-8.23-0.35c-3.29,0-6.01,0.12-8.16,0.35c-2.16,0.24-3.85,0.84-5.07,1.83c-1.22,0.99-2.11,2.56-2.67,4.71
					c-0.56,2.16-0.91,5.16-1.06,9.01c-0.14,3.85-0.21,8.77-0.21,14.78c0,6.01,0.07,10.93,0.21,14.78c0.14,3.85,0.49,6.85,1.06,9.01
					c0.56,2.16,1.45,3.73,2.67,4.71c1.22,0.99,2.91,1.6,5.07,1.83C1224.45,337.52,1227.17,337.64,1230.46,337.64z"/>
			</g>
			<g>
				<line class="st21" x1="507.5" y1="259.25" x2="507.5" y2="354.95"/>
				<line class="st21" x1="1301.25" y1="259.25" x2="1301.25" y2="354.95"/>
			</g>
		</g>
	</g>
	<rect x="199" y="212.75" transform="matrix(-1.836970e-16 1 -1 -1.836970e-16 720 -244)" class="st4" width="566" height="50.5"/>
</g>
<g id="Capa_14">
</g>
</svg>
