<svg xmlns="http://www.w3.org/2000/svg" viewBox="0 0 2470.12 927.24"><defs><style>.cls-1{fill:#fff;}</style></defs><title>Recurso 1</title><g id="Capa_2" data-name="Capa 2"><g id="Capa_1-2" data-name="Capa 1"><path class="cls-1" d="M276.52,74.71A14.54,14.54,0,0,1,288,80.26a18.76,18.76,0,0,1,4.69,12.37q0,12.81-11.94,15.37-1.73,5.11-3,34.56t-2.14,74.68q-.86,45.24-2.13,102t-1.71,115.65q-.44,58.88-1.28,116.07t-1.28,102.83q-.43,45.68-.85,76.39t-.43,36.7q-.86,15.36-2.57,35a236.51,236.51,0,0,1-6.86,39.26A176.4,176.4,0,0,1,244,878.66,95.47,95.47,0,0,1,219.15,909Q203.73,921.32,181,925.6T126.63,923q-23.14-5.13-38.57-20.91a126.28,126.28,0,0,1-24.84-36.7,210.24,210.24,0,0,1-14.13-43.52,261.28,261.28,0,0,1-5.56-41.4,17.12,17.12,0,0,1,4.69-12,16,16,0,0,1,12.37-5.12,16.39,16.39,0,0,1,12,5.12,16.35,16.35,0,0,1,5.12,12A219.43,219.43,0,0,0,82,807a231,231,0,0,0,9.45,32.43,133.87,133.87,0,0,0,15.47,29.87q9.45,13.65,21.48,18.78,18.91,7.68,33.09.85t23.63-24.32q9.43-17.51,13.75-42.67a324.12,324.12,0,0,0,4.29-54.2V680.66a147.08,147.08,0,0,1-26.46,40.54q-16.22,17.5-41,23.47-47.8,10.25-73.4-4.27T25.18,699.86q-11.52-26-13.23-57.18t-1.71-54.19q0-6,.41-28.17t.85-55.05q.4-32.83.85-72.54t.84-81.08q.42-41.38.84-80.65t0-71.26q-.42-32-.84-53.34t-2.11-26.46a18.72,18.72,0,0,1-7.67-6A15.85,15.85,0,0,1,0,103.73a16.39,16.39,0,0,1,5.12-12,20,20,0,0,1,11.85-6q25.28-3.41,41.28,10.24a60.15,60.15,0,0,1,20.27,35q1.7,8.53,2.13,40.54t.43,76.81q0,44.81-.86,96.86t-1.7,100.28q-.87,48.24-1.71,87.06T75.1,589.34a377.91,377.91,0,0,0,.43,54.19q2.14,25.19,8.59,42.68t18.48,24.32q12,6.84,30.92-.85,12.89-5.13,22.34-18.78A166.48,166.48,0,0,0,172.18,661a176.23,176.23,0,0,0,10.31-32.43,225.33,225.33,0,0,0,4.31-26.46q1.71-15.36,16.32-17.07,0-46.08.85-97.29t1.29-101.13q.41-49.93,1.27-96t1.71-82.35q.84-36.27,1.71-59.75t2.56-29.44A63.81,63.81,0,0,1,233.85,85Q250.05,71.32,276.52,74.71Z"/><path class="cls-1" d="M584.85,434.76q-3.06,44.39-10.45,88.77a699.21,699.21,0,0,1-19.14,84q-11.76,39.62-27.85,70.93t-35.25,49.61q-12.2,11.31-22.63,15.66a68.71,68.71,0,0,1-20.88,5.22q-20.89,0-37.42-8.7A96.57,96.57,0,0,1,382.94,718a130.41,130.41,0,0,1-19.58-30,200.63,200.63,0,0,1-12.19-32.2q-8.7-29.56-14.36-78.32t-7-105.31q-1.31-56.56,2.61-116.62a885,885,0,0,1,14.36-113.13q10.44-53.09,28.72-94.43T420.8,86.64q13.9-10.44,33.07-12.18a122.3,122.3,0,0,1,38.29,2.61,103.42,103.42,0,0,1,35.68,15.67,88.78,88.78,0,0,1,26.11,27c4.64,8.13,8.61,18.21,12.62,30,8.09,23.79,15.22,69.1,16.62,83.54C591.72,321.47,586.88,405.17,584.85,434.76ZM523.49,135c-2.26-6.91-6.39-12.19-10.44-16.54a29.72,29.72,0,0,0-14.36-8.7q-8.28-2.16-19.58,3.91-18.28,9.59-31.77,37t-22.62,64a658.56,658.56,0,0,0-14.37,78.76q-5.22,42.23-7.83,81.81t-3,73.1q-.44,33.51.44,51.78,0,6.11.87,28.72t3.48,51.78q2.61,29.18,7.4,58.75t13.49,49.17Q433.84,708,446.47,712t30-18.71q19.13-24.36,33.94-64.84a612,612,0,0,0,24.37-87.47,862.81,862.81,0,0,0,13.92-97,752.28,752.28,0,0,0,2.61-94.43C550.75,350.06,551.9,221.9,523.49,135Z"/><path class="cls-1" d="M1062.78,434.76q-3.06,44.39-10.44,88.77a701.11,701.11,0,0,1-19.15,84q-11.76,39.62-27.85,70.93t-35.25,49.61q-12.2,11.31-22.63,15.66a68.71,68.71,0,0,1-20.88,5.22q-20.9,0-37.42-8.7A96.57,96.57,0,0,1,860.87,718a130.41,130.41,0,0,1-19.58-30,199.61,199.61,0,0,1-12.18-32.2q-8.72-29.56-14.36-78.32t-7-105.31q-1.31-56.56,2.61-116.62a886.81,886.81,0,0,1,14.36-113.13q10.44-53.09,28.72-94.43t45.26-61.36q13.9-10.44,33.07-12.18a122.3,122.3,0,0,1,38.29,2.61,103.42,103.42,0,0,1,35.68,15.67,88.78,88.78,0,0,1,26.11,27c4.64,8.13,8.61,18.21,12.62,30,8.09,23.79,15.22,69.1,16.62,83.54C1069.66,321.47,1064.81,405.17,1062.78,434.76ZM1001.42,135C999.16,128,995,122.76,991,118.41a29.72,29.72,0,0,0-14.36-8.7q-8.28-2.16-19.58,3.91-18.28,9.59-31.77,37t-22.62,64a658.56,658.56,0,0,0-14.37,78.76q-5.22,42.23-7.83,81.81t-3.05,73.1q-.43,33.51.44,51.78,0,6.11.87,28.72t3.48,51.78q2.61,29.18,7.4,58.75t13.49,49.17Q911.77,708,924.4,712t30-18.71q19.13-24.36,33.94-64.84a610.7,610.7,0,0,0,24.37-87.47,860.52,860.52,0,0,0,13.92-97,752.28,752.28,0,0,0,2.61-94.43C1028.69,350.06,1029.83,221.9,1001.42,135Z"/><path class="cls-1" d="M705.5,71.87a13.78,13.78,0,0,1,12,4.26,16.41,16.41,0,0,1,5.12,12q0,12.81-12,17.07-.86,4.27-1.7,30.72t-1.71,67q-.86,40.55-1.28,90t-.85,98.57q-.45,49.09-.43,93.45V633.86q0,20.92-.86,41.82t-2.55,38.83h78.52a17.63,17.63,0,0,1,12.8,5,15.84,15.84,0,0,1,0,23.3,17.62,17.62,0,0,1-12.8,5H696.12a69.14,69.14,0,0,1-21.34,32.86q-15.36,13.22-40.11,11.52a17.23,17.23,0,0,1-11.95-4.64,15.76,15.76,0,0,1-5.12-12.25q0-11.82,11.95-16,3.39-13.5,5.12-40.64t2.13-57.44q.42-30.28.43-58.46V488.35q0-42.66.42-90t.86-94.73q.42-47.37,1.28-86.63t1.7-65.71q.84-26.44,1.71-31.58a63.3,63.3,0,0,1,20.48-35Q679.9,70.16,705.5,71.87Z"/><path class="cls-1" d="M1160.41,545.13q0-9.57-.78-20a36.44,36.44,0,0,0-6.14-18.29q-16.17.88-27.31,17.42t-15.39,40.07a173.28,173.28,0,0,0-1.15,50.51,126.58,126.58,0,0,0,16.15,49.65q13.08,22.66,37.31,36.58t61.15,11.32q35.37-1.73,55.77-27t25.38-61q5-35.71-4.23-75.34a185.44,185.44,0,0,0-33.08-71,212,212,0,0,0-45-45.29q-25-18.28-48.07-38.32a250.4,250.4,0,0,1-41.54-46.6q-18.45-26.57-25.38-71a178.88,178.88,0,0,1,0-61.84,199.42,199.42,0,0,1,18.46-56.18,190.26,190.26,0,0,1,32.31-45.72q19.22-20,42.3-30.49a120.33,120.33,0,0,1,38.46-10.88,107.31,107.31,0,0,1,39.61,3,129.71,129.71,0,0,1,70.39,47.9q11.53,14.82,19.61,37.45a181.62,181.62,0,0,1,10,46.6,135.65,135.65,0,0,1-3.46,44.85q-5.4,20.91-21.54,30.49-10,6.11-18.07,4.79a23,23,0,0,1-13.85-7.84,52.75,52.75,0,0,1-9.61-17,75.62,75.62,0,0,1-4.62-20.91v-27a22.64,22.64,0,0,1,6.54-11.76q5-4.77,11.15-3.91a15.48,15.48,0,0,1,10.39,6.53,17.36,17.36,0,0,1,3.46,12.63q-.78,6.1-1.16,15.67a36.92,36.92,0,0,0,2.69,16.55c2.56-2.31,4.36-6.53,5.39-12.63a121.48,121.48,0,0,0,1.54-20,138.38,138.38,0,0,0-1.54-20.9q-1.54-10-2.31-14.37-8.48-30.48-24.61-47t-35.38-20.46q-19.24-3.93-39.23,3t-36.54,24.39q-16.55,17.43-26.92,44t-10.39,60.53q0,41.81,16.54,70.11a207.63,207.63,0,0,0,40.77,50.08q24.23,21.8,51.15,42.25a247.48,247.48,0,0,1,46.92,46.6,199.3,199.3,0,0,1,30,58.35,225.33,225.33,0,0,1,10.77,63.15,193.66,193.66,0,0,1-8.46,61.83,172.93,172.93,0,0,1-26.92,53.57,143.61,143.61,0,0,1-44.62,38.76q-26.94,15.25-62.3,17-43.85,2.63-73.84-13.93t-47.31-43.55a161.43,161.43,0,0,1-23.07-60.53,210.58,210.58,0,0,1-1.54-64.46q4.21-30.9,17.69-55.3t34.23-34q18.45-8.7,30-4.79t18.07,15.24q6.52,11.33,9.23,28.31a307.5,307.5,0,0,1,3.46,33.53,18.7,18.7,0,0,1-5.76,11.76c-3.35,3.19-7.06,4.5-11.16,3.92a15.36,15.36,0,0,1-10.38-6.53A20.54,20.54,0,0,1,1160.41,545.13Z"/><path class="cls-1" d="M1325.05,36.32h121.42V34.56c-8.23-2.93-12.32-8.49-12.32-16.71a16.24,16.24,0,0,1,5.72-12.32A18.31,18.31,0,0,1,1452.62.25q22-1.75,37,8.8a62.65,62.65,0,0,1,22,27.27H1645.3a16.89,16.89,0,0,1,12.32,5.28,17,17,0,0,1,0,24.63,16.89,16.89,0,0,1-12.32,5.28H1516.85V195.56q0,39.6-.88,83.59t-1.32,85.78q-.45,41.79-1.32,78.74T1511.57,507q-.88,15.84-1.76,44.43t-.88,60.27q0,31.66,1.32,59.82t4.84,42.23a19.69,19.69,0,0,1,7.92,6.16,16.5,16.5,0,0,1,3.52,10.56,18,18,0,0,1-17.6,17.6q-27.29,1.74-43.11-13.2a67.74,67.74,0,0,1-20.23-37q-3.52-16.71-4.4-41.79t-.88-51.91q0-26.84.88-52.35t.88-44.87q.86-25.5,1.32-61.14t1.31-76.55q.87-40.9,1.32-83.58t.88-82.7q.43-40,.44-73.9V71.51l-122.29.88a16.87,16.87,0,0,1-12.32-5.28,17.9,17.9,0,0,1-5.27-13.19,16.92,16.92,0,0,1,5.27-12.32A16.87,16.87,0,0,1,1325.05,36.32Z"/><path class="cls-1" d="M1883.49,73.13A14.6,14.6,0,0,1,1895,78.68a18.77,18.77,0,0,1,4.69,12.38q0,12.81-12,15.37-1.73,5.11-3,34.57t-2.13,74.7q-.87,45.26-2.13,102t-1.71,115.67q-.45,58.91-1.28,116.1t-1.28,102.87q-.45,45.69-.86,76.41t-.42,36.71q-.87,15.36-2.58,35a236.62,236.62,0,0,1-6.86,39.27A176.27,176.27,0,0,1,1851,877.31a95.67,95.67,0,0,1-24.85,30.31Q1810.68,920,1788,924.27t-54.41-2.57q-23.14-5.12-38.57-20.91a126.3,126.3,0,0,1-24.85-36.71A210.25,210.25,0,0,1,1656,820.54a262.55,262.55,0,0,1-5.57-41.4,17.09,17.09,0,0,1,4.7-11.95,16,16,0,0,1,12.38-5.13,17.52,17.52,0,0,1,17.07,17.08,219.43,219.43,0,0,0,4.3,26.46,231.12,231.12,0,0,0,9.45,32.44,134.39,134.39,0,0,0,15.48,29.88q9.43,13.65,21.49,18.78,18.9,7.68,33.09.86T1792,863.23q9.43-17.52,13.75-42.69a324.21,324.21,0,0,0,4.3-54.21V679.25a146.86,146.86,0,0,1-26.47,40.55q-16.23,17.52-41,23.48-47.82,10.25-73.41-4.27t-37.14-40.55q-11.52-26-13.23-57.19t-1.71-54.21q0-6,.41-28.18t.85-55.06q.4-32.85.85-72.56t.84-81.1q.42-41.4.84-80.68t0-71.28q-.42-32-.84-53.36T1618,118.38a18.67,18.67,0,0,1-7.67-6,15.83,15.83,0,0,1-3.41-10.24,16.35,16.35,0,0,1,5.12-12,19.94,19.94,0,0,1,11.86-6q25.26-3.41,41.28,10.25a60.15,60.15,0,0,1,20.27,35q1.71,8.53,2.14,40.55t.43,76.83q0,44.82-.86,96.89t-1.71,100.31q-.86,48.24-1.7,87.08T1682,587.91a376.74,376.74,0,0,0,.43,54.21q2.15,25.18,8.59,42.68t18.49,24.33q12,6.86,30.93-.85,12.88-5.13,22.34-18.78a166.6,166.6,0,0,0,16.33-29.88,176.85,176.85,0,0,0,10.31-32.44,227.8,227.8,0,0,0,4.31-26.46q1.71-15.37,16.33-17.08,0-46.1.85-97.32t1.28-101.16q.42-49.95,1.28-96t1.71-82.38q.84-36.28,1.7-59.76t2.57-29.45a63.8,63.8,0,0,1,21.34-34.15Q1857,69.73,1883.49,73.13Z"/><path class="cls-1" d="M2015.23,71.87a13.8,13.8,0,0,1,12,4.26,16.41,16.41,0,0,1,5.12,12q0,12.81-12,17.07-.87,4.27-1.71,30.72t-1.7,67q-.87,40.55-1.29,90t-.85,98.57q-.43,49.09-.43,93.45V633.86q0,20.92-.85,41.82T2011,714.51h78.52a17.59,17.59,0,0,1,12.8,5,15.81,15.81,0,0,1,0,23.3,17.59,17.59,0,0,1-12.8,5h-83.64a69.06,69.06,0,0,1-21.34,32.86q-15.36,13.22-40.11,11.52a17.25,17.25,0,0,1-12-4.64,15.76,15.76,0,0,1-5.12-12.25q0-11.82,12-16,3.4-13.5,5.12-40.64t2.14-57.44q.42-30.28.42-58.46V488.35q0-42.66.43-90t.85-94.73q.42-47.37,1.28-86.63t1.71-65.71q.84-26.44,1.71-31.58a63.24,63.24,0,0,1,20.48-35Q1989.61,70.16,2015.23,71.87Z"/><path class="cls-1" d="M2162,71.31q25.61-1.73,41,12.53A69.46,69.46,0,0,1,2223.47,118h229.58a16.29,16.29,0,0,1,11.95,5.19,16.86,16.86,0,0,1,0,24.2,16.29,16.29,0,0,1-11.95,5.19H2339.11q-56.76,0-113.93.87v49.71q0,29.82-.43,65.27t-.85,73.92q-.45,38.48-1.28,75.64H2343a16.27,16.27,0,0,1,12,5.19,16.72,16.72,0,0,1,5.12,12.1,17.73,17.73,0,0,1-5.12,13,16.27,16.27,0,0,1-12,5.19H2221.76l-2.56,112.39q0,10.38-.42,27.23t-.86,37.17q-.43,20.34-.42,41.5v40.2h235.55a16.29,16.29,0,0,1,11.95,5.19,16.73,16.73,0,0,1,5.12,12.11,17.73,17.73,0,0,1-5.12,13,16.29,16.29,0,0,1-11.95,5.19h-233a75.13,75.13,0,0,0,.86,12.1c.56,3.46,1.13,6.62,1.71,9.51a18,18,0,0,1,8.53,6,13.15,13.15,0,0,1,2.56,10.38,16.69,16.69,0,0,1-5.12,12.1,16.27,16.27,0,0,1-12,5.19q-25.6,1.72-41.39-13.4a67.54,67.54,0,0,1-20.06-35.88q-3.42-16.41-4.26-41.06t-.86-51q0-26.36.86-51.44t1.7-44.09l1.71-112.39h-29a16.29,16.29,0,0,1-12-5.19,16.69,16.69,0,0,1-5.12-12.1,17.73,17.73,0,0,1,5.12-13,16.29,16.29,0,0,1,12-5.19h29.87q.84-51.87,1.71-105.47t.85-98.56q0-44.94-.42-74.78T2156.05,105q-11.1-4.3-11.1-16.42a16.73,16.73,0,0,1,5.12-12.11A16.3,16.3,0,0,1,2162,71.31Z"/></g></g></svg>