<?xml version="1.0" encoding="utf-8"?>
<!-- Generator: Adobe Illustrator 23.0.2, SVG Export Plug-In . SVG Version: 6.00 Build 0)  -->
<svg version="1.1" id="Capa_1" xmlns="http://www.w3.org/2000/svg" xmlns:xlink="http://www.w3.org/1999/xlink" x="0px" y="0px"
	 viewBox="0 0 500 198" style="enable-background:new 0 0 500 198;" xml:space="preserve">
<style type="text/css">
	.st0{fill:#FF7954;}
	.st1{fill:#DA6203;}
</style>
<g id="Logo_4_">
	<g>
		<path class="st0" d="M65.3,23.8c0.9,0,1.6,0.4,2.2,1.1s0.9,1.5,0.9,2.4c0,1.6-0.8,2.6-2.3,3c-0.2,0.7-0.4,2.9-0.6,6.7
			c-0.2,3.8-0.3,8.6-0.4,14.4s-0.3,12.4-0.4,19.6s-0.3,14.7-0.3,22.3c-0.1,7.6-0.1,15-0.3,22.4s-0.2,14-0.3,19.8s-0.1,10.8-0.2,14.7
			c-0.1,4-0.1,6.3-0.1,7.1c-0.1,2-0.3,4.2-0.5,6.7s-0.7,5-1.3,7.6c-0.7,2.5-1.6,4.9-2.8,7.2c-1.2,2.3-2.8,4.3-4.8,5.8
			s-4.4,2.7-7.3,3.2s-6.4,0.4-10.5-0.5c-3-0.7-5.5-2-7.4-4s-3.6-4.4-4.8-7.1c-1.2-2.7-2.1-5.5-2.7-8.4c-0.6-2.9-1-5.6-1.1-8
			c0-0.9,0.3-1.6,0.9-2.3c0.6-0.7,1.4-1,2.4-1c0.9,0,1.6,0.3,2.3,1s1,1.4,1,2.3c0.1,1.3,0.4,3,0.8,5.1c0.4,2.1,1,4.2,1.8,6.3
			s1.8,4,3,5.8c1.2,1.8,2.6,3,4.1,3.6c2.4,1,4.5,1,6.4,0.2c1.8-0.9,3.3-2.4,4.5-4.7s2.1-5,2.7-8.2c0.5-3.2,0.8-6.7,0.8-10.4v-16.8
			c-1.3,3-3,5.6-5.1,7.8c-2.1,2.3-4.7,3.8-7.9,4.5c-6.1,1.3-10.9,1-14.1-0.8c-3.3-1.9-5.7-4.5-7.1-7.8s-2.3-7-2.6-11
			s-0.3-7.5-0.3-10.4c0-0.8,0-2.6,0.1-5.4s0.1-6.4,0.2-10.6c0.1-4.2,0.1-8.9,0.2-14c0.1-5.1,0.1-10.3,0.2-15.6
			c0.1-5.3,0.1-10.5,0.2-15.5s0.1-9.6,0-13.7s-0.1-7.5-0.2-10.3s-0.2-4.4-0.4-5.1c-0.6-0.2-1-0.6-1.5-1.1c-0.4-0.6-0.7-1.2-0.7-2
			c0-0.9,0.3-1.6,1-2.3s1.4-1,2.3-1.1c3.3-0.4,5.9,0.2,7.9,2c2.1,1.8,3.4,4,3.9,6.7c0.2,1.1,0.4,3.7,0.4,7.8c0,4.1,0.1,9.1,0.1,14.8
			c0,5.8-0.1,12-0.2,18.7c-0.1,6.7-0.2,13.1-0.3,19.3c-0.1,6.2-0.2,11.8-0.3,16.8s-0.2,8.6-0.3,10.9c-0.2,3.7-0.2,7.2,0.1,10.4
			c0.3,3.2,0.8,6,1.6,8.2c0.8,2.3,2,3.8,3.6,4.7c1.5,0.9,3.5,0.8,6-0.2c1.7-0.7,3.1-1.9,4.3-3.6c1.2-1.8,2.3-3.7,3.2-5.8
			c0.9-2.1,1.5-4.2,2-6.3c0.4-2.1,0.7-3.8,0.8-5.1c0.2-2,1.3-3.1,3.2-3.3c0-5.9,0-12.2,0.2-18.8c0.1-6.6,0.2-13.1,0.3-19.5
			c0-6.4,0.1-12.6,0.3-18.5s0.2-11.2,0.3-15.9c0.1-4.7,0.2-8.5,0.3-11.5s0.3-4.9,0.5-5.7c0.7-2.6,2-4.8,4.1-6.6
			C59.1,24,61.9,23.4,65.3,23.8z"/>
		<path class="st0" d="M124.7,93.2c-0.4,5.7-1.1,11.4-2,17.1c-0.9,5.7-2.2,11.1-3.7,16.2c-1.5,5.1-3.3,9.6-5.4,13.7
			s-4.3,7.2-6.8,9.6c-1.6,1.5-3,2.5-4.4,3c-1.3,0.6-2.7,0.9-4,1c-2.7,0-5.1-0.6-7.2-1.7c-2.1-1.1-3.9-2.5-5.4-4.3
			c-1.5-1.7-2.8-3.7-3.8-5.8c-1-2.1-1.8-4.2-2.3-6.2c-1.1-3.8-2-8.8-2.8-15.1c-0.7-6.3-1.2-13-1.3-20.3c-0.2-7.3,0-14.8,0.5-22.5
			s1.4-15,2.8-21.8s3.2-12.9,5.5-18.2c2.3-5.3,5.3-9.3,8.7-11.8c1.8-1.3,3.9-2.1,6.4-2.4c2.5-0.2,4.9-0.1,7.4,0.5
			c2.5,0.6,4.8,1.6,6.9,3c2.1,1.4,3.8,3.2,5,5.2c0.9,1.6,1.7,3.5,2.4,5.8c1.6,4.6,2.9,13.3,3.2,16.1C126,71.4,125.1,87.5,124.7,93.2
			z M112.9,35.4c-0.4-1.3-1.2-2.4-2-3.2s-1.7-1.4-2.8-1.7s-2.3,0-3.8,0.8c-2.3,1.2-4.4,3.6-6.1,7.1s-3.2,7.6-4.4,12.3
			s-2.1,9.8-2.8,15.2c-0.7,5.4-1.2,10.7-1.5,15.8c-0.3,5.1-0.5,9.8-0.6,14.1s0,7.6,0.1,10c0,0.8,0.1,2.6,0.2,5.5
			c0.1,2.9,0.3,6.2,0.7,10c0.3,3.8,0.8,7.5,1.4,11.3c0.6,3.8,1.5,7,2.6,9.5c1.1,2.5,2.5,4,4.1,4.5s3.6-0.7,5.8-3.6
			c2.5-3.1,4.6-7.3,6.5-12.5c1.9-5.2,3.5-10.8,4.7-16.9c1.2-6,2.1-12.3,2.7-18.7s0.7-12.5,0.5-18.2
			C118.1,76.9,118.3,52.2,112.9,35.4z"/>
		<path class="st0" d="M216.8,93.2c-0.4,5.7-1.1,11.4-2,17.1c-0.9,5.7-2.2,11.1-3.7,16.2c-1.5,5.1-3.3,9.6-5.4,13.7
			c-2.1,4-4.3,7.2-6.8,9.6c-1.6,1.5-3,2.5-4.4,3s-2.7,0.9-4,1c-2.7,0-5.1-0.6-7.2-1.7c-2.1-1.1-3.9-2.5-5.4-4.3
			c-1.5-1.7-2.8-3.7-3.8-5.8c-1-2.1-1.8-4.2-2.4-6.2c-1.1-3.8-2-8.8-2.8-15.1c-0.7-6.3-1.2-13-1.3-20.3c-0.2-7.3,0-14.8,0.5-22.5
			s1.4-15,2.8-21.8c1.3-6.8,3.2-12.9,5.5-18.2c2.4-5.3,5.3-9.3,8.7-11.8c1.8-1.3,3.9-2.1,6.4-2.4c2.5-0.2,4.9-0.1,7.4,0.5
			c2.5,0.6,4.8,1.6,6.9,3c2.1,1.4,3.8,3.2,5,5.2c0.9,1.6,1.7,3.5,2.4,5.8c1.6,4.6,2.9,13.3,3.2,16.1
			C218.1,71.4,217.2,87.5,216.8,93.2z M205,35.4c-0.4-1.3-1.2-2.4-2-3.2s-1.7-1.4-2.8-1.7s-2.3,0-3.8,0.8c-2.4,1.2-4.4,3.6-6.1,7.1
			s-3.2,7.6-4.4,12.3s-2.1,9.8-2.8,15.2c-0.7,5.4-1.2,10.7-1.5,15.8c-0.3,5.1-0.5,9.8-0.6,14.1s0,7.6,0.1,10c0,0.8,0.1,2.6,0.2,5.5
			c0.1,2.9,0.3,6.2,0.7,10c0.3,3.8,0.8,7.5,1.4,11.3c0.6,3.8,1.5,7,2.6,9.5c1.1,2.5,2.5,4,4.1,4.5s3.6-0.7,5.8-3.6
			c2.5-3.1,4.6-7.3,6.5-12.5c1.9-5.2,3.5-10.8,4.7-16.9c1.2-6,2.1-12.3,2.7-18.7s0.7-12.5,0.5-18.2C210.2,76.9,210.4,52.2,205,35.4z
			"/>
		<path class="st0" d="M147.9,23.3c0.9-0.1,1.6,0.2,2.3,0.8s1,1.4,1,2.3c0,1.6-0.8,2.7-2.3,3.3c-0.1,0.6-0.2,2.5-0.3,5.9
			s-0.2,7.7-0.3,12.9s-0.2,11-0.3,17.4s-0.1,12.7-0.2,19c-0.1,6.3-0.1,12.3-0.1,18s0,10.5,0,14.5c0,1.9,0,4,0,6.5s0,5,0,7.7
			s-0.1,5.4-0.2,8.1c-0.1,2.7-0.3,5.2-0.5,7.5h15.1c1,0,1.8,0.3,2.5,1c0.7,0.6,1,1.4,1,2.2c0,0.9-0.3,1.6-1,2.3
			c-0.7,0.6-1.5,1-2.5,1h-16.1c-0.8,2.5-2.1,4.6-4.1,6.3c-2,1.7-4.6,2.4-7.7,2.2c-0.9,0-1.6-0.3-2.3-0.9c-0.7-0.6-1-1.4-1-2.4
			c0-1.5,0.8-2.5,2.3-3.1c0.4-1.7,0.8-4.4,1-7.8c0.2-3.5,0.4-7.2,0.4-11.1c0.1-3.9,0.1-7.6,0.1-11.3s0-6.4,0-8.2c0-3.7,0-8.3,0-13.8
			c0-5.5,0-11.3,0.1-17.4S135,74,135,67.9s0.1-11.6,0.3-16.7c0.1-5,0.2-9.3,0.3-12.7c0.1-3.4,0.2-5.4,0.3-6.1
			c0.6-2.6,1.9-4.9,3.9-6.7C142,23.9,144.7,23,147.9,23.3z"/>
		<path class="st0" d="M235.6,114.5c0-1.2-0.1-2.5-0.1-3.9c-0.1-1.3-0.5-2.5-1.2-3.5c-2.1,0.1-3.8,1.2-5.3,3.4
			c-1.4,2.1-2.4,4.7-3,7.7c-0.5,3-0.6,6.3-0.2,9.7c0.4,3.5,1.4,6.7,3.1,9.6c1.7,2.9,4.1,5.3,7.2,7c3.1,1.8,7,2.5,11.8,2.2
			c4.5-0.2,8.1-2,10.8-5.2c2.6-3.2,4.3-7.2,4.9-11.8s0.4-9.4-0.8-14.5s-3.3-9.6-6.4-13.7c-2.6-3.5-5.5-6.4-8.7-8.7
			c-3.2-2.4-6.3-4.8-9.3-7.4c-3-2.6-5.6-5.6-8-9c-2.4-3.4-4-8-4.9-13.7c-0.7-4-0.7-8,0-11.9s1.9-7.5,3.6-10.8
			c1.7-3.3,3.8-6.2,6.2-8.8c2.5-2.6,5.2-4.5,8.1-5.9c2.4-1.1,4.8-1.8,7.4-2.1s5.1-0.1,7.6,0.6c2.5,0.7,4.9,1.8,7.3,3.3
			c2.3,1.5,4.4,3.5,6.3,6c1.5,1.9,2.7,4.3,3.8,7.2s1.7,5.9,1.9,9s0,6-0.7,8.6c-0.7,2.7-2.1,4.6-4.1,5.9c-1.3,0.8-2.5,1.1-3.5,0.9
			c-1-0.2-1.9-0.7-2.7-1.5c-0.7-0.8-1.4-1.9-1.9-3.3c-0.5-1.3-0.8-2.7-0.9-4v-5.2c0.2-0.9,0.6-1.6,1.3-2.3c0.6-0.6,1.4-0.9,2.1-0.8
			s1.5,0.5,2,1.3s0.8,1.5,0.7,2.4c-0.1,0.8-0.2,1.8-0.2,3c0,1.2,0.1,2.3,0.5,3.2c0.5-0.4,0.8-1.3,1-2.4s0.3-2.5,0.3-3.9
			s-0.1-2.7-0.3-4c-0.2-1.3-0.4-2.2-0.4-2.8c-1.1-3.9-2.7-6.9-4.7-9.1c-2.1-2.1-4.4-3.4-6.8-3.9s-5-0.3-7.6,0.6
			c-2.6,0.9-4.9,2.5-7,4.7c-2.1,2.2-3.9,5.1-5.2,8.5c-1.3,3.4-2,7.3-2,11.7c0,5.4,1.1,9.9,3.2,13.5c2.1,3.6,4.7,6.9,7.9,9.6
			c3.1,2.8,6.4,5.5,9.9,8.1s6.5,5.6,9,9c2.6,3.5,4.5,7.2,5.8,11.3c1.3,4,2,8.1,2.1,12.2c0.1,4.1-0.4,8.1-1.6,11.9
			c-1.2,3.9-2.9,7.3-5.2,10.3c-2.3,3-5.1,5.5-8.6,7.5s-7.5,3-12,3.3c-5.6,0.3-10.4-0.6-14.2-2.7c-3.9-2.1-6.9-4.9-9.1-8.4
			c-2.2-3.5-3.7-7.4-4.4-11.7c-0.7-4.3-0.8-8.5-0.3-12.4s1.7-7.5,3.4-10.7c1.7-3.1,3.9-5.3,6.6-6.6c2.4-1.1,4.3-1.4,5.8-0.9
			s2.6,1.5,3.5,2.9s1.4,3.3,1.8,5.5c0.4,2.2,0.6,4.3,0.7,6.5c-0.1,0.9-0.5,1.6-1.1,2.3s-1.4,0.9-2.1,0.8s-1.5-0.5-2-1.3
			C235.9,116.2,235.6,115.4,235.6,114.5z"/>
		<path class="st0" d="M267.3,16.4h23.4v-0.3c-1.6-0.6-2.4-1.6-2.4-3.2c0-0.9,0.4-1.7,1.1-2.4c0.7-0.7,1.5-1,2.5-1
			c2.8-0.2,5.2,0.3,7.1,1.7c1.9,1.4,3.3,3.1,4.2,5.3h25.8c0.9,0,1.7,0.3,2.4,1c0.7,0.7,1,1.5,1,2.4c0,0.9-0.3,1.7-1,2.4
			c-0.7,0.7-1.5,1-2.4,1h-24.8c0,2.5,0,5.8,0,10s0,8.8,0,13.9s-0.1,10.5-0.2,16.1c-0.1,5.6-0.2,11.2-0.3,16.5
			c-0.1,5.4-0.1,10.4-0.3,15.2c-0.1,4.8-0.2,8.8-0.3,12.2c-0.1,2-0.2,4.9-0.3,8.6c-0.1,3.7-0.2,7.5-0.2,11.6s0.1,7.9,0.3,11.5
			s0.5,6.3,0.9,8.1c0.6,0.2,1.1,0.6,1.5,1.2c0.5,0.6,0.7,1.3,0.7,2c0,0.9-0.3,1.7-1,2.4c-0.7,0.7-1.5,1-2.4,1
			c-3.5,0.2-6.3-0.6-8.3-2.5c-2-1.9-3.3-4.3-3.9-7.1c-0.5-2.1-0.7-4.8-0.9-8c-0.1-3.2-0.2-6.5-0.2-10s0.1-6.8,0.2-10.1
			c0.1-3.3,0.2-6.2,0.2-8.6c0.1-3.3,0.2-7.2,0.3-11.8c0.1-4.6,0.1-9.5,0.3-14.8s0.2-10.6,0.3-16.1c0.1-5.5,0.1-10.8,0.2-15.9
			c0.1-5.1,0.1-9.9,0.1-14.2s0-8.1,0-11.1l-23.6,0.2c-0.9,0-1.7-0.3-2.4-1c-0.7-0.7-1-1.5-1-2.5c0-0.9,0.3-1.7,1-2.4
			C265.6,16.8,266.4,16.4,267.3,16.4z"/>
		<path class="st0" d="M375,23.5c0.9,0,1.6,0.4,2.2,1.1s0.9,1.5,0.9,2.4c0,1.6-0.8,2.6-2.3,3c-0.2,0.7-0.4,2.9-0.6,6.7
			c-0.2,3.8-0.3,8.6-0.4,14.4c-0.1,5.8-0.3,12.4-0.4,19.7c-0.2,7.3-0.3,14.7-0.3,22.3c-0.1,7.6-0.1,15-0.3,22.4
			c-0.1,7.4-0.2,14-0.3,19.8c-0.1,5.9-0.1,10.8-0.2,14.7c-0.1,4-0.1,6.3-0.1,7.1c-0.1,2-0.3,4.2-0.5,6.8c-0.2,2.5-0.7,5-1.3,7.6
			c-0.7,2.5-1.6,4.9-2.8,7.2s-2.8,4.3-4.8,5.8s-4.4,2.7-7.4,3.2s-6.4,0.4-10.5-0.5c-3-0.7-5.5-2-7.4-4c-2-2-3.6-4.4-4.8-7.1
			c-1.2-2.7-2.1-5.5-2.7-8.4c-0.6-2.9-1-5.6-1.1-8c0-0.9,0.3-1.6,0.9-2.3c0.6-0.7,1.4-1,2.4-1c0.9,0,1.6,0.3,2.3,1s1,1.4,1,2.3
			c0.1,1.3,0.4,3,0.8,5.1c0.4,2.1,1,4.2,1.8,6.3c0.8,2.1,1.8,4,3,5.8c1.2,1.8,2.6,3,4.1,3.6c2.4,1,4.5,1,6.4,0.2
			c1.8-0.9,3.3-2.4,4.5-4.7s2.1-5,2.6-8.2c0.5-3.2,0.8-6.7,0.8-10.5v-16.8c-1.3,3-3,5.6-5.1,7.8c-2.1,2.3-4.7,3.8-7.9,4.5
			c-6.1,1.3-10.9,1-14.1-0.8c-3.3-1.9-5.7-4.5-7.2-7.8s-2.3-7-2.5-11s-0.3-7.5-0.3-10.5c0-0.8,0-2.6,0.1-5.4s0.1-6.4,0.2-10.6
			c0-4.2,0.1-8.9,0.2-14c0-5.1,0.1-10.3,0.2-15.6c0-5.3,0.1-10.5,0.2-15.6c0-5,0-9.6,0-13.7c0-4.1-0.1-7.5-0.2-10.3
			c0-2.7-0.2-4.4-0.4-5.1c-0.5-0.2-1-0.6-1.5-1.1c-0.4-0.6-0.7-1.2-0.7-2c0-0.9,0.3-1.6,1-2.3c0.7-0.7,1.4-1,2.3-1.1
			c3.3-0.4,5.9,0.2,8,2c2.1,1.8,3.4,4,3.9,6.8c0.2,1.1,0.4,3.7,0.4,7.8c0,4.1,0.1,9.1,0.1,14.8s-0.1,12-0.2,18.7
			c-0.1,6.7-0.2,13.1-0.3,19.3c-0.1,6.2-0.2,11.8-0.3,16.8s-0.2,8.6-0.3,10.9c-0.2,3.7-0.2,7.2,0.1,10.5c0.3,3.2,0.8,6,1.7,8.2
			c0.8,2.3,2,3.8,3.6,4.7s3.5,0.8,6-0.2c1.7-0.7,3.1-1.9,4.3-3.6c1.2-1.8,2.3-3.7,3.1-5.8c0.9-2.1,1.5-4.2,2-6.3
			c0.4-2.1,0.7-3.8,0.8-5.1c0.2-2,1.3-3.1,3.1-3.3c0-5.9,0-12.2,0.2-18.8c0.1-6.6,0.2-13.1,0.3-19.5c0-6.4,0.1-12.6,0.3-18.5
			s0.2-11.2,0.3-15.9c0.1-4.7,0.2-8.5,0.3-11.5s0.3-4.9,0.5-5.7c0.7-2.6,2-4.8,4.1-6.6C368.8,23.7,371.5,23.1,375,23.5z"/>
		<path class="st0" d="M400.3,23.3c0.9-0.1,1.6,0.2,2.3,0.8c0.7,0.7,1,1.4,1,2.3c0,1.6-0.8,2.7-2.3,3.3c-0.1,0.6-0.2,2.5-0.3,5.9
			s-0.2,7.7-0.3,12.9s-0.2,11-0.3,17.4s-0.1,12.7-0.2,19c-0.1,6.3-0.1,12.3-0.1,18s0,10.5,0,14.5c0,1.9,0,4,0,6.5s0,5,0,7.7
			s-0.1,5.4-0.2,8.1c-0.1,2.7-0.3,5.2-0.5,7.5h15.1c1,0,1.8,0.3,2.5,1c0.7,0.6,1,1.4,1,2.2c0,0.9-0.3,1.6-1,2.3
			c-0.7,0.6-1.5,1-2.5,1h-16.1c-0.8,2.5-2.1,4.6-4.1,6.3c-2,1.7-4.5,2.4-7.7,2.2c-0.9,0-1.6-0.3-2.3-0.9c-0.7-0.6-1-1.4-1-2.4
			c0-1.5,0.8-2.5,2.3-3.1c0.4-1.7,0.8-4.4,1-7.8c0.2-3.5,0.4-7.2,0.4-11.1c0-3.9,0.1-7.6,0.1-11.3s0-6.4,0-8.2c0-3.7,0-8.3,0-13.8
			c0-5.5,0-11.3,0.1-17.4s0.1-12.2,0.2-18.3c0-6.1,0.1-11.6,0.3-16.7c0.1-5,0.2-9.3,0.3-12.7c0.1-3.4,0.2-5.4,0.3-6.1
			c0.5-2.6,1.9-4.9,4-6.7C394.4,23.9,397,23,400.3,23.3z"/>
		<path class="st0" d="M428.6,23.1c3.3-0.2,5.9,0.6,7.9,2.4c2,1.8,3.3,4,4,6.6h44.2c0.9,0,1.6,0.3,2.3,1c0.7,0.7,1,1.4,1,2.3
			s-0.3,1.7-1,2.3c-0.7,0.7-1.4,1-2.3,1c-7.4,0-14.7,0-22,0c-7.3,0-14.6,0.1-22,0.2c0,2.6,0,5.8,0,9.6s0,8-0.1,12.6
			c-0.1,4.6-0.1,9.3-0.2,14.2c-0.1,4.9-0.1,9.8-0.3,14.6h23.2c0.9,0,1.6,0.3,2.3,1s1,1.4,1,2.3c0,1-0.3,1.8-1,2.5s-1.4,1-2.3,1
			h-23.4l-0.5,21.7c0,1.3,0,3.1-0.1,5.3c-0.1,2.2-0.1,4.6-0.2,7.2c-0.1,2.6-0.1,5.3-0.1,8s0,5.3,0,7.8h45.4c0.9,0,1.6,0.3,2.3,1
			c0.7,0.7,1,1.4,1,2.3c0,1-0.3,1.8-1,2.5s-1.4,1-2.3,1h-44.9c0,0.9,0,1.7,0.2,2.3c0.1,0.7,0.2,1.3,0.3,1.8c0.7,0.2,1.2,0.6,1.6,1.2
			c0.4,0.5,0.6,1.2,0.5,2c0,0.9-0.3,1.7-1,2.3c-0.7,0.7-1.4,1-2.3,1c-3.3,0.2-6-0.6-8-2.6c-2-1.9-3.3-4.3-3.9-6.9
			c-0.4-2.1-0.7-4.8-0.8-7.9c-0.1-3.2-0.2-6.4-0.2-9.8c0-3.4,0-6.7,0.2-9.9c0.1-3.2,0.2-6,0.3-8.5l0.3-21.7h-5.6
			c-0.9,0-1.6-0.3-2.3-1c-0.7-0.7-1-1.4-1-2.3c0-1,0.3-1.8,1-2.5s1.4-1,2.3-1h5.8c0.1-6.7,0.2-13.4,0.3-20.3s0.2-13.2,0.2-19
			s0-10.6-0.1-14.4c-0.1-3.8-0.1-6-0.3-6.6c-1.4-0.6-2.1-1.6-2.1-3.2c0-0.9,0.3-1.7,1-2.3C427,23.5,427.8,23.1,428.6,23.1z"/>
	</g>
	<g>
		<path class="st1" d="M74.8,180.2h2.5c0.9,0,1.5,0,1.7-0.1s0.3-0.1,0.4-0.3c0.1-0.2,0.2-0.6,0.4-1.4c0-0.1,0.1-0.2,0.1-0.4h0.7
			c-0.1,1.1-0.1,2-0.1,2.6c0,0.6,0,1.5,0.1,2.6h-0.7c-0.2-1-0.3-1.5-0.4-1.6c-0.1-0.2-0.2-0.3-0.4-0.4s-0.7-0.1-1.5-0.1h-2.8l0.1,6
			h4.3l0.4,0c0.6,0,0.9,0,1.1-0.1c0.3-0.1,0.5-0.2,0.7-0.4c0.2-0.2,0.6-0.8,1.1-1.8c0.1-0.1,0.1-0.2,0.2-0.4h0.7
			c-0.1,0.2-0.5,1.5-1.3,3.8c-2.5-0.1-4.7-0.1-6.8-0.1c-1.4,0-3,0-4.7,0.1v-0.6l1.7-0.4c0.3-0.1,0.4-0.1,0.5-0.2
			c0.1-0.1,0.2-0.4,0.2-0.8v-0.2l0.1-2.4c0-0.5,0-1.4,0-2.7c0-2,0-3.4,0-4.3c0-0.9-0.1-1.4-0.1-1.5c0-0.1-0.1-0.1-0.2-0.2
			c-0.1,0-0.4-0.1-0.9-0.3l-1.1-0.2v-0.6c1.3,0.1,2.8,0.1,4.6,0.1c1,0,3.3,0,6.9-0.1c0,1.2,0.1,2.3,0.2,3.5h-0.7
			c-0.3-0.9-0.5-1.5-0.7-1.8c-0.1-0.2-0.3-0.4-0.4-0.4c-0.2-0.1-0.7-0.1-1.5-0.1h-4.1l-0.1,3.3L74.8,180.2z"/>
		<path class="st1" d="M84,174.5v-0.6c0.9,0.1,1.5,0.1,2,0.1c0.4,0,1.1,0,2.1-0.1l2.9,3.6c0.3,0.3,2.3,2.8,6.1,7.4c0-1,0-1.6,0-2.1
			c0-1,0-2.9-0.1-5.5c0-1.3-0.1-1.9-0.1-2c0-0.1-0.1-0.2-0.2-0.3c-0.1-0.1-0.6-0.2-1.4-0.4c-0.1,0-0.3-0.1-0.5-0.1v-0.6
			c1.2,0.1,2.2,0.1,2.9,0.1c0.7,0,1.7,0,2.9-0.1v0.6c-0.2,0-0.3,0.1-0.4,0.1c-0.9,0.2-1.4,0.3-1.5,0.4c-0.1,0-0.1,0.1-0.2,0.2
			c-0.1,0.1-0.1,0.3-0.1,0.6c0,0.1,0,1-0.1,2.8c0,1.7,0,3.4,0,5c0,1.9,0,3.5,0.1,4.8l-0.7,0.3l-4.2-5.3l-5.6-6.7l0.1,6
			c0,2.6,0.1,4,0.1,4.2c0,0.1,0.1,0.2,0.2,0.3c0.2,0.1,0.7,0.3,1.5,0.4c0.1,0,0.3,0,0.5,0.1v0.6c-1-0.1-1.9-0.1-2.6-0.1
			c-0.6,0-1.6,0-3.1,0.1v-0.6c0.2,0,0.4-0.1,0.5-0.1c0.8-0.1,1.3-0.3,1.4-0.4c0.1-0.1,0.1-0.2,0.2-0.3c0.1-0.3,0.1-1.5,0.1-3.5
			c0-2.9,0.1-4.6,0.1-5.1c0-1.7,0-2.6-0.1-2.8c0-0.1-0.1-0.3-0.3-0.3c-0.2-0.1-0.8-0.2-1.9-0.4C84.4,174.5,84.3,174.5,84,174.5z"/>
		<path class="st1" d="M114.8,185.8l0.4,0.8c-1.1,0.7-2.1,1.2-3.1,1.5s-2,0.5-3.1,0.5c-1.4,0-2.6-0.3-3.7-0.9s-1.9-1.5-2.5-2.6
			c-0.6-1.1-0.9-2.4-0.9-3.8c0-2.3,0.7-4.1,2.2-5.5c1.5-1.4,3.4-2.2,5.8-2.2c1.5,0,3.2,0.3,5,0.9c0,0.6,0,1,0,1.3
			c0,0.9,0.1,1.8,0.2,2.7h-0.8c-0.3-1.2-0.5-2-0.8-2.5c-0.3-0.5-0.8-0.8-1.4-1.1c-0.6-0.3-1.4-0.4-2.4-0.4c-2,0-3.4,0.7-4.4,2.1
			c-0.8,1.1-1.2,2.5-1.2,4.1c0,2,0.5,3.5,1.6,4.6c1.1,1.1,2.5,1.7,4.3,1.7c0.8,0,1.5-0.1,2.2-0.3
			C112.9,186.7,113.8,186.3,114.8,185.8z"/>
		<path class="st1" d="M116.2,174.5v-0.6c1.3,0.1,2.3,0.1,3.3,0.1c1,0,2.1,0,3.3-0.1v0.6c-0.2,0-0.4,0.1-0.5,0.1
			c-1,0.1-1.5,0.3-1.6,0.4c-0.1,0.1-0.2,0.3-0.2,0.7c0,0.9-0.1,2.7-0.1,5.2c0,1.7,0.1,2.9,0.1,3.5c0.1,0.6,0.3,1.1,0.7,1.6
			c0.4,0.4,0.8,0.8,1.5,1s1.3,0.4,2,0.4c1.1,0,1.9-0.2,2.6-0.7c0.7-0.4,1.1-1,1.3-1.8c0.2-0.7,0.3-2.2,0.3-4.3c0-2.8,0-4.5-0.1-5
			c0-0.2-0.1-0.4-0.2-0.5s-0.6-0.2-1.5-0.4c-0.1,0-0.2,0-0.4-0.1v-0.6c1.3,0.1,2.3,0.1,3,0.1c0.8,0,1.7,0,2.7-0.1v0.6
			c-0.2,0-0.3,0.1-0.4,0.1c-0.9,0.2-1.4,0.3-1.5,0.4s-0.2,0.3-0.2,0.5c-0.1,0.5-0.1,2.1-0.1,4.7c0,2,0,3.3-0.1,3.9
			c-0.1,0.8-0.3,1.4-0.5,1.8c-0.2,0.5-0.6,0.9-1.1,1.3c-0.5,0.4-1,0.7-1.6,0.9c-0.8,0.3-1.7,0.4-2.6,0.4c-1,0-1.9-0.1-2.7-0.4
			c-0.8-0.2-1.4-0.6-1.8-1c-0.4-0.4-0.8-0.9-1-1.5c-0.2-0.6-0.3-1.4-0.3-2.5l0-4.6c0-1.7,0-2.7,0-2.9c0-0.3-0.1-0.6-0.2-0.7
			c-0.1-0.1-0.1-0.2-0.2-0.2c-0.1,0-0.6-0.1-1.4-0.3C116.6,174.5,116.4,174.5,116.2,174.5z"/>
		<path class="st1" d="M137.3,180.2h2.5c0.9,0,1.5,0,1.7-0.1s0.3-0.1,0.4-0.3c0.1-0.2,0.2-0.6,0.4-1.4c0-0.1,0.1-0.2,0.1-0.4h0.7
			c-0.1,1.1-0.1,2-0.1,2.6c0,0.6,0,1.5,0.1,2.6h-0.7c-0.2-1-0.3-1.5-0.4-1.6c-0.1-0.2-0.2-0.3-0.4-0.4s-0.7-0.1-1.5-0.1h-2.8l0.1,6
			h4.3l0.4,0c0.6,0,0.9,0,1.1-0.1c0.3-0.1,0.5-0.2,0.7-0.4c0.2-0.2,0.6-0.8,1.1-1.8c0.1-0.1,0.1-0.2,0.2-0.4h0.7
			c-0.1,0.2-0.5,1.5-1.3,3.8c-2.5-0.1-4.7-0.1-6.8-0.1c-1.4,0-3,0-4.7,0.1v-0.6l1.6-0.4c0.3-0.1,0.4-0.1,0.5-0.2
			c0.1-0.1,0.1-0.4,0.1-0.8v-0.2l0.1-2.4c0-0.5,0-1.4,0-2.7c0-2,0-3.4,0-4.3c0-0.9-0.1-1.4-0.1-1.5c0-0.1-0.1-0.1-0.2-0.2
			c-0.1,0-0.4-0.1-0.9-0.3l-1.1-0.2v-0.6c1.3,0.1,2.8,0.1,4.6,0.1c1,0,3.3,0,6.9-0.1c0,1.2,0.1,2.3,0.2,3.5H144
			c-0.3-0.9-0.5-1.5-0.7-1.8c-0.1-0.2-0.3-0.4-0.4-0.4c-0.2-0.1-0.7-0.1-1.5-0.1h-4.1l-0.1,3.3L137.3,180.2z"/>
		<path class="st1" d="M146.5,174.5v-0.6c0.9,0.1,1.5,0.1,2,0.1c0.4,0,1.1,0,2.1-0.1l2.9,3.6c0.3,0.3,2.3,2.8,6.1,7.4
			c0-1,0-1.6,0-2.1c0-1,0-2.9-0.1-5.5c0-1.3-0.1-1.9-0.1-2c0-0.1-0.1-0.2-0.2-0.3c-0.1-0.1-0.6-0.2-1.4-0.4c-0.1,0-0.3-0.1-0.5-0.1
			v-0.6c1.2,0.1,2.2,0.1,2.9,0.1c0.7,0,1.6,0,2.9-0.1v0.6c-0.2,0-0.3,0.1-0.4,0.1c-0.9,0.2-1.4,0.3-1.5,0.4c-0.1,0-0.1,0.1-0.2,0.2
			c-0.1,0.1-0.1,0.3-0.1,0.6c0,0.1,0,1-0.1,2.8c0,1.7,0,3.4,0,5c0,1.9,0,3.5,0.1,4.8l-0.7,0.3l-4.2-5.3l-5.6-6.7l0.1,6
			c0,2.6,0.1,4,0.1,4.2c0,0.1,0.1,0.2,0.2,0.3c0.1,0.1,0.6,0.3,1.5,0.4c0.1,0,0.3,0,0.5,0.1v0.6c-1-0.1-1.9-0.1-2.6-0.1
			c-0.6,0-1.6,0-3.1,0.1v-0.6c0.2,0,0.4-0.1,0.5-0.1c0.8-0.1,1.3-0.3,1.4-0.4c0.1-0.1,0.1-0.2,0.2-0.3c0.1-0.3,0.1-1.5,0.1-3.5
			c0-2.9,0.1-4.6,0.1-5.1c0-1.7,0-2.6-0.1-2.8c0-0.1-0.1-0.3-0.3-0.3c-0.1-0.1-0.8-0.2-1.9-0.4C146.9,174.5,146.8,174.5,146.5,174.5
			z"/>
		<path class="st1" d="M164.7,177.8h-0.8c0.1-1.2,0.2-2.5,0.4-4c3,0.1,5.1,0.1,6.4,0.1c1.1,0,3,0,5.8-0.1c0.1,1.5,0.2,2.8,0.3,4H176
			c-0.3-1.2-0.5-2-0.6-2.2c-0.1-0.2-0.2-0.4-0.4-0.5c-0.2-0.1-0.6-0.1-1.4-0.1h-2.3c-0.1,1.8-0.1,4-0.1,6.7c0,2.5,0,4.1,0.1,5
			c0,0.2,0.1,0.3,0.1,0.4c0.1,0.1,0.7,0.2,1.7,0.4c0.1,0,0.2,0,0.4,0.1v0.6c-1.3-0.1-2.5-0.1-3.6-0.1c-1,0-2,0-3.1,0.1v-0.6
			c0.2-0.1,0.4-0.1,0.5-0.1c0.9-0.2,1.5-0.3,1.6-0.4c0.1,0,0.1-0.1,0.1-0.2s0.1-0.9,0.1-2.3c0-2.2,0-3.8,0-4.8c0-1.8,0-3.4,0-4.8
			h-2.4l-0.4,0c-0.4,0-0.6,0-0.8,0.1c-0.2,0.1-0.4,0.4-0.5,0.7C165.1,176.2,164.9,176.8,164.7,177.8z"/>
		<path class="st1" d="M177.5,174.5v-0.6c1.8,0.1,3.2,0.1,4.3,0.1c0.6,0,1.2,0,1.8,0c0.7,0,1.2,0,1.5,0c1.3,0,2.3,0.3,3,0.9
			c0.7,0.6,1,1.5,1,2.5c0,0.7-0.1,1.4-0.4,1.9c-0.3,0.5-0.7,1-1.3,1.4c-0.4,0.3-1,0.5-1.8,0.7l3.4,4.4c0.4,0.5,0.7,0.9,0.8,1
			c0.2,0.1,0.4,0.3,0.7,0.4c0.4,0.1,1,0.3,1.9,0.5v0.6c-1.1-0.1-1.9-0.1-2.3-0.1c-0.6,0-1.1,0-1.7,0.1c-0.3-0.5-0.7-1.1-1.2-1.9
			c-0.5-0.8-0.8-1.2-1-1.4c-0.1-0.1-0.1-0.2-0.2-0.3l-2.2-3.1c-0.6,0-1.2-0.1-1.8-0.1l0.1,5.1c0,0.2,0.1,0.4,0.2,0.5
			c0.2,0.1,0.7,0.3,1.5,0.4c0.1,0,0.3,0.1,0.6,0.1v0.6c-1.2-0.1-2.3-0.1-3.2-0.1c-1,0-2.1,0-3.4,0.1v-0.6l0.4-0.1
			c1-0.2,1.5-0.3,1.6-0.5c0.1-0.1,0.2-0.3,0.2-0.6c0-0.2,0-1.9,0.1-5.2l0-4.8c0-0.7,0-1.1-0.1-1.3c0-0.1-0.1-0.2-0.2-0.2
			c-0.3-0.2-0.9-0.3-1.6-0.4C177.9,174.5,177.7,174.5,177.5,174.5z M181.8,180.7c0.7,0.1,1.3,0.1,1.6,0.1c1.2,0,2.1-0.3,2.7-0.8
			c0.6-0.5,0.9-1.3,0.9-2.3c0-0.9-0.3-1.5-0.8-2s-1.3-0.7-2.3-0.7c-0.4,0-1.1,0-2.1,0.1L181.8,180.7z"/>
		<path class="st1" d="M199.7,173.6h0.6c0.9,2.4,2,5,3.4,8l2.4,5.2c0.1,0.2,0.2,0.3,0.4,0.4c0.1,0.1,0.6,0.2,1.5,0.5v0.6
			c-1.2-0.1-2.1-0.1-2.7-0.1c-0.6,0-1.6,0-3.1,0.1v-0.6c0.8-0.2,1.3-0.3,1.4-0.4c0.1-0.1,0.2-0.2,0.2-0.4c0-0.1-0.1-0.4-0.2-0.7
			l-1-2.5c-1.4,0-2.5,0-3.1,0l-2.8,0l-1.1,2.6c-0.2,0.4-0.3,0.7-0.3,0.8c0,0.1,0,0.2,0.1,0.2c0.1,0.1,0.5,0.2,1.2,0.3
			c0.1,0,0.2,0,0.3,0.1v0.6c-1.2-0.1-2-0.1-2.4-0.1c-0.6,0-1.4,0-2.3,0.1v-0.6c0.6-0.1,1-0.3,1.3-0.5c0.2-0.1,0.4-0.4,0.5-0.6
			c0.4-0.7,1.4-2.8,2.9-6.5L199.7,173.6z M197.1,182.7c0.9,0,1.6,0,2,0c0.1,0,1.2,0,3.1,0l-2.6-6.1L197.1,182.7z"/>
		<path class="st1" d="M214.7,177.8h-0.8c0.1-1.2,0.2-2.5,0.4-4c3,0.1,5.1,0.1,6.4,0.1c1.1,0,3,0,5.8-0.1c0.1,1.5,0.2,2.8,0.3,4H226
			c-0.3-1.2-0.5-2-0.6-2.2c-0.1-0.2-0.2-0.4-0.4-0.5c-0.2-0.1-0.6-0.1-1.4-0.1h-2.3c-0.1,1.8-0.1,4-0.1,6.7c0,2.5,0,4.1,0.1,5
			c0,0.2,0.1,0.3,0.1,0.4c0.1,0.1,0.7,0.2,1.7,0.4c0.1,0,0.2,0,0.4,0.1v0.6c-1.3-0.1-2.5-0.1-3.6-0.1c-1,0-2,0-3.1,0.1v-0.6
			c0.2-0.1,0.4-0.1,0.5-0.1c0.9-0.2,1.5-0.3,1.6-0.4c0.1,0,0.1-0.1,0.1-0.2s0.1-0.9,0.1-2.3c0-2.2,0-3.8,0-4.8c0-1.8,0-3.4,0-4.8
			h-2.4l-0.4,0c-0.4,0-0.6,0-0.8,0.1c-0.2,0.1-0.4,0.4-0.5,0.7C215.1,176.2,214.9,176.8,214.7,177.8z"/>
		<path class="st1" d="M227.4,174.5v-0.6c1.3,0.1,2.4,0.1,3.3,0.1c1,0,2.1,0,3.3-0.1v0.6c-0.2,0-0.4,0.1-0.5,0.1
			c-1,0.1-1.5,0.3-1.6,0.4c-0.1,0.1-0.2,0.3-0.2,0.7c0,0.9-0.1,2.7-0.1,5.2c0,1.7,0.1,2.9,0.1,3.5c0.1,0.6,0.3,1.1,0.7,1.6
			c0.4,0.4,0.9,0.8,1.5,1s1.3,0.4,2,0.4c1.1,0,1.9-0.2,2.6-0.7s1.1-1,1.3-1.8c0.2-0.7,0.3-2.2,0.3-4.3c0-2.8,0-4.5-0.1-5
			c0-0.2-0.1-0.4-0.2-0.5s-0.6-0.2-1.5-0.4c-0.1,0-0.2,0-0.4-0.1v-0.6c1.3,0.1,2.3,0.1,3,0.1c0.8,0,1.7,0,2.7-0.1v0.6
			c-0.2,0-0.3,0.1-0.4,0.1c-0.9,0.2-1.4,0.3-1.5,0.4s-0.2,0.3-0.2,0.5c-0.1,0.5-0.1,2.1-0.1,4.7c0,2,0,3.3-0.1,3.9
			c-0.1,0.8-0.3,1.4-0.5,1.8c-0.2,0.5-0.6,0.9-1.1,1.3c-0.5,0.4-1,0.7-1.6,0.9c-0.8,0.3-1.7,0.4-2.6,0.4c-1,0-1.9-0.1-2.6-0.4
			c-0.8-0.2-1.4-0.6-1.8-1c-0.4-0.4-0.8-0.9-1-1.5c-0.2-0.6-0.3-1.4-0.3-2.5l0-4.6c0-1.7,0-2.7,0-2.9c0-0.3-0.1-0.6-0.1-0.7
			c-0.1-0.1-0.1-0.2-0.2-0.2c-0.1,0-0.6-0.1-1.4-0.3C227.8,174.5,227.6,174.5,227.4,174.5z"/>
		<path class="st1" d="M253.8,180.2h2.5c1,0,1.5,0,1.7-0.1c0.2,0,0.3-0.1,0.4-0.3c0.1-0.2,0.2-0.6,0.4-1.4c0-0.1,0-0.2,0.1-0.4h0.7
			c-0.1,1.1-0.1,2-0.1,2.6c0,0.6,0,1.5,0.1,2.6h-0.7c-0.2-1-0.3-1.5-0.4-1.6c-0.1-0.2-0.2-0.3-0.4-0.4c-0.2-0.1-0.7-0.1-1.5-0.1
			h-2.8l0.1,6h4.3l0.4,0c0.6,0,1,0,1.1-0.1c0.3-0.1,0.5-0.2,0.7-0.4c0.2-0.2,0.6-0.8,1.1-1.8c0-0.1,0.1-0.2,0.2-0.4h0.7
			c-0.1,0.2-0.5,1.5-1.3,3.8c-2.5-0.1-4.7-0.1-6.8-0.1c-1.4,0-3,0-4.7,0.1v-0.6l1.6-0.4c0.3-0.1,0.4-0.1,0.5-0.2
			c0.1-0.1,0.1-0.4,0.1-0.8v-0.2l0.1-2.4c0-0.5,0-1.4,0-2.7c0-2,0-3.4,0-4.3c0-0.9-0.1-1.4-0.1-1.5c0-0.1-0.1-0.1-0.2-0.2
			c-0.1,0-0.4-0.1-0.9-0.3l-1.1-0.2v-0.6c1.3,0.1,2.8,0.1,4.6,0.1c1,0,3.3,0,6.9-0.1c0,1.2,0.1,2.3,0.2,3.5h-0.7
			c-0.3-0.9-0.5-1.5-0.7-1.8c-0.1-0.2-0.3-0.4-0.4-0.4c-0.2-0.1-0.7-0.1-1.5-0.1h-4.1l-0.1,3.3L253.8,180.2z"/>
		<path class="st1" d="M272.7,177.7H272c-0.2-0.9-0.4-1.5-0.6-1.9s-0.6-0.7-1-0.9c-0.5-0.2-1-0.3-1.5-0.3c-0.8,0-1.5,0.2-1.9,0.7
			c-0.5,0.5-0.7,1-0.7,1.6c0,0.6,0.2,1.1,0.6,1.5c0.4,0.4,1.3,1,2.8,1.6c1.5,0.6,2.5,1.3,3.1,2c0.5,0.7,0.8,1.5,0.8,2.3
			c0,0.8-0.2,1.5-0.6,2.2c-0.4,0.7-1,1.2-1.8,1.6c-0.8,0.4-1.7,0.6-2.6,0.6c-0.6,0-1.3-0.1-1.9-0.2s-1.4-0.3-2.3-0.6
			c0.1-1,0.1-2.2,0.1-3.8h0.8c0.2,1,0.5,1.7,0.7,2.1s0.6,0.7,1.1,1s1,0.4,1.6,0.4c0.8,0,1.5-0.2,2.1-0.7s0.9-1.1,0.9-1.9
			c0-0.7-0.2-1.2-0.6-1.8c-0.4-0.5-1.4-1.1-2.9-1.7c-1.5-0.6-2.5-1.2-2.9-1.8c-0.5-0.6-0.7-1.3-0.7-2.1c0-0.7,0.2-1.4,0.6-2
			c0.4-0.6,1-1.1,1.8-1.5c0.8-0.4,1.6-0.5,2.4-0.5c1,0,2.2,0.2,3.6,0.7c0,1,0,1.6,0,1.8C272.7,176.5,272.7,177,272.7,177.7z"/>
		<path class="st1" d="M275.7,177.8H275c0.1-1.2,0.2-2.5,0.4-4c3,0.1,5.1,0.1,6.4,0.1c1.1,0,3,0,5.8-0.1c0.1,1.5,0.2,2.8,0.3,4h-0.8
			c-0.3-1.2-0.5-2-0.6-2.2c-0.1-0.2-0.2-0.4-0.4-0.5s-0.6-0.1-1.4-0.1h-2.3c0,1.8-0.1,4-0.1,6.7c0,2.5,0,4.1,0.1,5
			c0,0.2,0.1,0.3,0.1,0.4c0.1,0.1,0.7,0.2,1.7,0.4c0.1,0,0.2,0,0.4,0.1v0.6c-1.3-0.1-2.5-0.1-3.6-0.1c-1,0-2,0-3.1,0.1v-0.6
			c0.2-0.1,0.4-0.1,0.5-0.1c0.9-0.2,1.5-0.3,1.6-0.4c0.1,0,0.1-0.1,0.1-0.2c0-0.1,0.1-0.9,0.1-2.3c0-2.2,0-3.8,0-4.8
			c0-1.8,0-3.4,0-4.8H278l-0.4,0c-0.4,0-0.6,0-0.8,0.1c-0.2,0.1-0.4,0.4-0.5,0.7C276.2,176.2,276,176.8,275.7,177.8z"/>
		<path class="st1" d="M295.3,173.9v0.6c-0.2,0-0.4,0.1-0.5,0.1c-0.9,0.2-1.4,0.3-1.6,0.4c-0.1,0.1-0.2,0.5-0.2,0.9v0.4l0,4.1l0,5.9
			c0,0.5,0.1,0.8,0.2,0.9c0.1,0.1,0.6,0.2,1.4,0.3c0.2,0,0.4,0.1,0.7,0.1v0.6c-1.1-0.1-2.1-0.1-3.1-0.1c-1,0-2.2,0-3.4,0.1v-0.6
			c0.2,0,0.4-0.1,0.5-0.1c1-0.2,1.5-0.3,1.6-0.4c0.1-0.1,0.2-0.5,0.2-1l0-0.5l0-3.7c0-3.8,0-6,0-6.4c0-0.2-0.1-0.4-0.2-0.5
			s-0.6-0.3-1.5-0.4c-0.1,0-0.3-0.1-0.5-0.1v-0.6c1.5,0.1,2.6,0.1,3.5,0.1C293.1,174,294.1,173.9,295.3,173.9z"/>
		<path class="st1" d="M296.3,174.5v-0.6c1.7,0.1,2.8,0.1,3.4,0.1c0.4,0,1.5,0,3.5-0.1v0.6c-1.2,0.2-1.9,0.4-2.1,0.4
			c-0.1,0-0.3,0.1-0.3,0.2c-0.1,0.1-0.2,0.4-0.2,0.9s0,3,0,7.5c0,0.9,0,2.1,0,3.6h4.5c0.7,0,1.1,0,1.3-0.1s0.4-0.3,0.6-0.5
			s0.6-1,1.2-2.1h0.9l-0.8,2.3c-0.1,0.4-0.3,1-0.5,1.7c-2.8-0.1-5.3-0.1-7.3-0.1c-1.5,0-2.8,0-4.1,0.1v-0.6c1-0.2,1.6-0.3,1.8-0.4
			s0.3-0.2,0.4-0.3s0.1-0.5,0.1-1.1l0-6.2l0-4c0-0.4,0-0.6-0.1-0.6c-0.2-0.1-0.7-0.3-1.5-0.4C296.8,174.6,296.6,174.5,296.3,174.5z"
			/>
		<path class="st1" d="M310,181.2c0-2.2,0.7-4,2.1-5.5c1.4-1.4,3.3-2.1,5.5-2.1c2.1,0,3.8,0.6,5,1.9s1.9,3,1.9,5.2
			c0,2.5-0.7,4.4-2.1,5.8c-1.4,1.4-3.2,2.1-5.5,2.1c-2.1,0-3.8-0.6-5.1-1.9C310.6,185.4,310,183.5,310,181.2z M312.2,180.9
			c0,2.2,0.5,3.9,1.5,5s2.2,1.7,3.7,1.7c1,0,1.9-0.3,2.6-0.8c0.8-0.5,1.4-1.3,1.7-2.3c0.4-1,0.6-2.1,0.6-3.3c0-1.5-0.3-2.8-0.8-3.8
			s-1.1-1.7-1.9-2.2c-0.7-0.4-1.6-0.7-2.5-0.7c-1,0-1.9,0.3-2.7,0.8s-1.4,1.3-1.8,2.3C312.4,178.6,312.2,179.7,312.2,180.9z"/>
	</g>
</g>
</svg>
